<?xml version="1.0" encoding="UTF-8"?>
<svg width="130px" height="130px" viewBox="0 0 130 130" version="1.1" xmlns="http://www.w3.org/2000/svg" xmlns:xlink="http://www.w3.org/1999/xlink">
    <title>Product / Life / Default</title>
    <defs>
        <polygon id="path-1" points="1.50067458e-11 0 13 0 26 74 12 74"></polygon>
    </defs>
    <g id="Product-/-Life-/-Default" stroke="none" stroke-width="1" fill="none" fill-rule="evenodd">
        <g id="Default">
            <rect id="Rectangle" fill-opacity="0" fill="#FFFFFF" fill-rule="nonzero" x="0" y="0" width="130" height="130"></rect>
            <g id="Group-3" transform="translate(5.000000, 43.000000)">
                <g id="Group-2" transform="translate(98.000000, 42.000000) rotate(-1.000000) translate(-98.000000, -42.000000) translate(85.000000, 5.000000)">
                    <g id="Rectangle">
                        <g id="Mask" fill="#ECECEC" fill-rule="nonzero">
                            <polygon id="path-1" points="1.50067458e-11 0 13 0 26 74 12 74"></polygon>
                        </g>
                        <g id="Clipped">
                            <mask id="mask-2" fill="white">
                                <use xlink:href="#path-1"></use>
                            </mask>
                            <g id="path-1"></g>
                            <polygon id="Path" fill="#D9D9D9" fill-rule="nonzero" mask="url(#mask-2)" transform="translate(9.999848, 37.017452) rotate(4.000000) translate(-9.999848, -37.017452) " points="-3.00015233 0.0174523845 9.99984767 0.0174523845 22.9998477 74.0174524 8.99984767 74.0174524"></polygon>
                        </g>
                    </g>
                    <polyline id="Path" stroke="#4A4A4A" stroke-width="2" stroke-linecap="round" stroke-linejoin="round" points="12 74 0 0 13 0 26 74"></polyline>
                </g>
                <g id="Fam_Web-Copy" transform="translate(8.000000, 0.000000)">
                    <g id="Group-131">
                        <path d="M8.74059406,79.2079208 L93.8118812,79.2079208 L94.3995677,5.48910891 C94.4176446,4.85426969 94.0774064,4.26268425 93.5188119,3.96039604 L89.6831683,0.38019802 C89.1925679,0.130091909 88.6496839,-2.30487103e-07 88.0990099,-2.30487103e-07 L10.1108911,-2.30487103e-07 L8.74059406,79.2079208 Z" id="Fill-1" fill="#ECECEC" fill-rule="nonzero"></path>
                        <g id="Group-8" transform="translate(0.178218, 0.000000)">
                            <path d="M88.1742574,-0.000252858781 L3.58811881,-0.000252858781 C3.00274702,-0.00633223567 2.43894798,0.220690345 2.02130439,0.630902561 C1.60366079,1.04111478 1.36655354,1.60074748 1.36237624,2.18613861 L0.0703693157,76.7524752 C0.0585163421,77.3908862 0.303220026,78.0075729 0.75024271,78.4635361 C1.19726539,78.9194992 1.80898607,79.1762377 2.44752475,79.1762377 L87.1287129,79.1762377" id="Fill-5" fill="#F7F7F7" fill-rule="nonzero"></path>
                            <path d="M68.1742574,-0.000596513985 L3.58811881,-0.000596513985 C3.00274702,-0.00633223567 2.43894798,0.220690345 2.02130439,0.630902561 C1.60366079,1.04111478 1.36655354,1.60074748 1.36237624,2.18613861 L0.0708112088,76.7524752 C0.0585163421,77.3908862 0.303220026,78.0075729 0.75024271,78.4635361 C1.19726539,78.9194992 1.80898607,79.1762377 2.44752475,79.1762377" id="Stroke-7" stroke="#4A4A4A" stroke-width="2" stroke-linecap="round" stroke-linejoin="round"></path>
                        </g>
                        <path d="M8.74059406,79.2079208 L94.111881,79.2079208 L94.7957302,5.79456677 C94.8046351,4.82440414 94.3439374,3.9097665 93.5590068,3.33951995 L89.7508099,0.572891792 C89.238282,0.200543826 88.6210374,-2.27373675e-13 87.987533,-2.27373675e-13 L10.1108911,-2.27373675e-13 L10.1108911,-2.27373675e-13" id="Path" stroke="#4A4A4A" stroke-width="2" stroke-linecap="round" stroke-linejoin="round"></path>
                        <g id="Group-12" transform="translate(86.514851, 69.702970)">
                            <line x1="1.06138614" y1="9.47326733" x2="1.21980198" y2="0.118811881" id="Fill-9"></line>
                            <line x1="1.06138614" y1="9.47326733" x2="1.21980198" y2="0.118811881" id="Stroke-11" stroke="#4A4A4A" stroke-width="2" stroke-linecap="round" stroke-linejoin="round"></line>
                        </g>
                        <g id="Group-16" transform="translate(87.306931, 3.168317)">
                            <line x1="0.697029703" y1="51.1683168" x2="1.57623762" y2="0.0712871287" id="Fill-13"></line>
                            <line x1="0.697029703" y1="51.1683168" x2="1.57623762" y2="2.07128713" id="Stroke-15" stroke="#4A4A4A" stroke-width="2" stroke-linecap="round" stroke-linejoin="round"></line>
                        </g>
                        <g id="Group-20" transform="translate(87.306931, 60.990099)">
                            <line x1="0.554455446" y1="1.72673267" x2="0.586138614" y2="0.095049505" id="Fill-17"></line>
                            <line x1="0.554455446" y1="1.72673267" x2="0.586138614" y2="0.095049505" id="Stroke-19" stroke="#4A4A4A" stroke-width="2" stroke-linecap="round" stroke-linejoin="round"></line>
                        </g>
                        <polygon id="Fill-21" fill="#F9F9F9" fill-rule="nonzero" points="8.77227723 69.4178218 79.3465347 69.4178218 81.3346535 7.42178218 9.03366337 7.42178218"></polygon>
                        <path d="M43.6712871,70.3762376 L7.90891089,70.2653465 L8.33663366,45.560396 C25.149835,42.5029703 37.0732673,42.0277228 44.1069307,44.1346535" id="Fill-27" fill="#F7F7F7" fill-rule="nonzero"></path>
                        <g id="Path-12" opacity="0.06" transform="translate(7.306931, 64.158416)" fill="#4A4A4A" fill-rule="nonzero">
                            <path d="M1.2990099,4.82376238 C13.180198,3.15511551 20.1953795,1.5709571 22.3445545,0.0712871287 C22.3049505,0.142574257 22.7643564,0 22.7247525,0.0712871287 C22.1465347,1.17227723 21.2910891,3.03366337 20.1821782,5.61584158 C12.0554455,6.08580858 6.12013201,6.23630363 2.37623762,6.06732673 C0.435643564,6.08316832 0.0712871287,5.65544554 1.2990099,4.82376238 Z" id="Path"></path>
                        </g>
                        <g id="Path-11" opacity="0.06" transform="translate(6.514851, 47.524752)" fill="#4A4A4A" fill-rule="nonzero">
                            <path d="M2.2019802,8.51485149 L0.578217822,3.6039604 C4.51626325,2.34233539 8.53627516,1.3525497 12.609901,0.641584158 L15.5089109,4.94257426 C11.0056173,5.86529172 6.56193998,7.05820747 2.2019802,8.51485149 L2.2019802,8.51485149 Z" id="Path"></path>
                        </g>
                        <g id="Path-11-Copy" opacity="0.06" transform="translate(7.306931, 53.069307)" fill="#4A4A4A" fill-rule="nonzero">
                            <path d="M0.887128713,12.3881188 L0.213861386,7.26336634 C11.619802,5.76633663 21.4257426,3.16831683 30.0990099,0.792079208 L31.0178218,0.546534653 L32.3564356,5.53663366 L31.4376238,5.78217822 C22.6059406,8.17425743 12.6257426,10.8514851 0.887128713,12.3881188 Z" id="Path"></path>
                        </g>
                        <path d="M44.1069307,44.1346535 C49.3267327,45.7188119 54.8633663,45.3306931 61.5326733,44.7287129 C63.0455446,47.5643564 65.8336634,50.1306931 69.0891089,45.2831683 C69.0891089,45.2831683 77.8019802,43.5247525 81.0811881,46.9386139 L80.4950495,70.4950495 L43.6712871,70.3841584" id="Fill-27-2" fill="#ECECEC" fill-rule="nonzero"></path>
                        <path d="M54.4039604,39.1841584 C52.819802,37.5128713 52.819802,33.1168317 52.5108911,31.4455446 C52.2019802,29.7742574 54.9346535,22.3366337 54.9346535,22.3366337 L61.6910891,24.0871287 L68.9782178,22.6455446 L69.1287129,26.819802 C69.1287129,26.819802 70.3405941,29.3069307 71.4653465,29.3069307 C72.590099,29.3069307 72.3762376,26.8752475 74.4990099,25.5841584 C76.6217822,24.2930693 77.7623762,25.5841584 78.1425743,28.9980198 C78.5227723,32.4118812 74.0475248,32.9584158 74.0475248,32.9584158 L73.5405941,44.570297 C73.6514851,46.6613861 72.9148515,47.9841584 71.7425743,49.6158416 C70.2059406,51.7623762 68.9544554,52.1821782 65.7782178,52.4356436 C63.9858944,52.608681 62.2810887,51.6258732 61.5326733,49.9881188 C60.4950495,49.2514851 60.4237624,47.3821782 60.4633663,46.6217822 L60.5663366,44.3247525 C58.4251259,42.7183981 56.3682637,41.0025837 54.4039604,39.1841584 Z" id="Fill-71" fill="#FFFFFF" fill-rule="nonzero"></path>
                        <g id="Group-32" transform="translate(8.099010, 11.089109)" fill-rule="nonzero">
                            <path d="M0,24.6574257 C1.66336634,28.6970297 4.79207921,28.9108911 6.54257426,28.1584158 L6.04356436,21.1643564 C4.21331307,20.7705025 2.87329195,19.2001146 2.77227723,17.3306931 C2.5980198,14.0990099 4.44356436,11.6910891 7.28712871,14.7009901 C8.76831683,18.5742574 10.019802,16.8237624 13.2277228,11.9920792 C17.8772277,15.4613861 23.2158416,12.5069307 23.2158416,12.5069307 C25.1414679,13.8262185 27.5053566,14.3433192 29.8059406,13.9485149 C32.7762376,12.9742574 32.5069307,9.39405941 30.7564356,7.73861386 C32.7683168,3.31881188 26.360396,-0.8 14.0118812,1.14059406 C11.2633663,-0.57029703 1.33861386,-0.316831683 0.22970297,9.27524752" id="Fill-33" fill="#E0E0E0"></path>
                            <path d="M27.9762376,14.5346535 L23.2237624,12.5069307 C23.2237624,12.5069307 15.6910891,14.1940594 14.5108911,13.1722772 C13.3306931,12.150495 11.7782178,10.8910891 11.4376238,13.7425743 C11.0970297,16.5940594 7.41386139,16.4435644 7.41386139,16.4435644 C7.41386139,16.4435644 6.54257426,11.1207921 4.59405941,13.3940594 C1.73465347,16.7366337 6.06732673,20.7049505 6.06732673,20.7049505 L6.53465347,30.3841584 L6.53465347,33.7267327 C6.46336634,35.4772277 7.57227723,37.2277228 8.24554455,38.8118812 C9.47326733,40.3960396 11.5564356,41.409901 14.7960396,40.8237624 C19.6594059,39.9524752 20.5148515,36.6019802 20.5148515,36.6019802 L20.7366337,33.9722772" id="Fill-29" fill="#FFFFFF"></path>
                        </g>
                        <g id="Group-36" stroke-linecap="round" stroke-linejoin="round" transform="translate(8.099010, 11.089109)" stroke="#4A4A4A" stroke-width="2">
                            <path d="M6.85940594,13.5920792 C6.91485149,15.3108911 7.08910891,16.0475248 7.42178218,16.4435644 C7.86335053,16.9993465 8.62072641,17.1935455 9.27524752,16.9188119 C10.8594059,16.1742574 10.6930693,13.409901 12.1108911,12.3564356 C12.5956838,12.0541537 13.2102568,12.0541537 13.6950495,12.3564356 C18.2178218,15.2554455 23.2,12.5148515 23.2,12.5148515 C25.0107598,13.7164659 27.2298862,14.1363006 29.3544554,13.6792079 C31.6831683,13.0059406 32.8950495,9.24356436 31.1524752,7.58811881 C33.1485149,3.16831683 23.809901,-2.37623762 13.1405941,1.58415842 C10.7168317,0.403960396 3.63564356,0.942574257 1.1009901,4.75247525" id="Stroke-35"></path>
                            <path d="M6.55841584,13.3782178 C4.75247525,12.9188119 2.96237624,14.4633663 3.16831683,17.0138614 C3.35307072,18.4728652 4.37603291,19.6880203 5.78217822,20.1188119 L5.95643564,33.1881188 C7.32673267,39.3108911 10.5584158,41.2514851 14.0673267,40.6653465 C19.3346535,39.7940594 19.4217822,33.2594059 19.4217822,33.2594059 L19.4217822,31.8811881" id="Stroke-35-2"></path>
                            <path d="M0.60990099,26.5584158 C1.44158416,27.8891089 3.8970297,28.5227723 5.42574257,28.2613861" id="Stroke-35-3"></path>
                        </g>
                        <g id="Group-40" transform="translate(20.772277, 26.138614)">
                            <path d="M0.673267327,16.6336634 C0.673267327,16.6336634 8.38019802,20.5940594 13.7425743,14.550495 C17.7029703,9.87722772 17.2277228,4.83168317 15.9049505,0.617821782" id="Fill-37" fill="#FFFFFF" fill-rule="nonzero"></path>
                            <path d="M2.54257426,16.6732673 C5.17227723,17.370297 10.1544554,17.5841584 13.6316832,13.829703 C17.4372554,9.75774071 15.816135,5.34203916 15.5570717,1.34158896" id="Stroke-39" stroke="#4A4A4A" stroke-width="2" stroke-linecap="round" stroke-linejoin="round"></path>
                        </g>
                        <g id="Group-44" transform="translate(31.861386, 28.514851)">
                            <line x1="1.4970297" y1="0.19009901" x2="1.63168317" y2="1.06138614" id="Fill-41"></line>
                            <line x1="1.00594059" y1="0.475247525" x2="1.05346535" y2="1.17227723" id="Stroke-43" stroke="#4A4A4A" stroke-width="1.5" stroke-linecap="round" stroke-linejoin="round"></line>
                        </g>
                        <g id="Group-48" stroke-linecap="round" stroke-linejoin="round" transform="translate(21.564356, 29.306931)" stroke="#4A4A4A" stroke-width="1.5">
                            <line x1="0.499009901" y1="0.356435644" x2="0.554455446" y2="1.02178218" id="Stroke-47"></line>
                        </g>
                        <g id="Group-52" transform="translate(25.524752, 30.099010)">
                            <path d="M4.36435644,0.158415842 C4.36435644,0.158415842 3.44554455,1.96435644 0.554455446,0.665346535" id="Fill-49" fill="#FFFFFF" fill-rule="nonzero"></path>
                            <path d="M4.16633663,1.10891089 C4.16633663,1.10891089 2.78811881,2.75643564 0.435643564,1.35445545" id="Stroke-51" stroke="#4A4A4A" stroke-width="1.5" stroke-linecap="round" stroke-linejoin="round"></path>
                        </g>
                        <g id="Group-56" stroke-linecap="round" stroke-linejoin="round" transform="translate(8.099010, 44.356436)" stroke="#4A4A4A" stroke-width="2">
                            <path d="M5.92475248,0.293069307 C4.52277228,0.435643564 1.66336634,1.14851485 0.332673267,3.15247525" id="Stroke-55"></path>
                        </g>
                        <g id="Group-66" transform="translate(73.841584, 44.356436)">
                            <path d="M0.0554455446,0.182178218 C3.47270112,0.555731736 6.60413983,2.26378921 8.76831683,4.93465347" id="Fill-63" fill="#FFFFFF" fill-rule="nonzero"></path>
                            <path d="M0.0554455446,0.182178218 C0.0554455446,0.182178218 4.80792079,1.18811881 6.7009901,3.5009901" id="Stroke-65" stroke="#4A4A4A" stroke-width="2" stroke-linecap="round" stroke-linejoin="round"></path>
                        </g>
                        <g id="Group-70" transform="translate(50.871287, 11.089109)">
                            <path d="M2.37623762,14.5346535 C0.752475248,11.8019802 1.36237624,8.1980198 1.36237624,8.1980198 C1.36237624,8.1980198 2.05148515,0.277227723 14.8990099,0.372277228 C27.4534653,0.467326733 28.8475248,7.08118812 28.8475248,7.08118812 C29.4506103,7.34961185 30.026242,7.67589158 30.5663366,8.05544554 C31.5009901,8.6970297 31.8574257,21.0851485 30.7009901,22.5821782 C28.5598124,25.1248974 25.7910231,27.063596 22.6693069,28.2059406 L23.2316832,21.409901 C24.8129758,21.6301656 26.3566392,20.8087961 27.0574257,19.3742574 C28.2613861,16.9029703 26.019802,12.1188119 22.7960396,15.580198 C20.6178218,19.2792079 18.2178218,18.6059406 18.0990099,16.3247525 C17.9960396,14.2415842 18.4158416,10.5584158 16.9821782,11.1841584 C15.5485149,11.809901 9.21188119,14.1623762 4.22178218,11.1207921" id="Fill-67" fill="#E0E0E0" fill-rule="nonzero"></path>
                            <path d="M29.5524752,24.0792079 C27.6875276,26.0688166 25.3077284,27.5027279 22.6772277,28.2217822 L23.239604,21.4257426 C24.8208966,21.6460072 26.36456,20.8246376 27.0653465,19.390099 C28.2376238,16.5861386 25.029703,11.9445545 22.8039604,15.429703 C20.9267327,19.390099 18.5425743,18.8831683 18.4237624,16.609901 C18.3207921,14.5267327 18.8435644,11.4455446 17.409901,12.0792079 C15.9762376,12.7128713 7.17623762,14.2574257 3.23960396,10.5742574" id="Stroke-69" stroke="#4A4A4A" stroke-width="2" stroke-linecap="round" stroke-linejoin="round"></path>
                            <path d="M1.33861386,13.3069307 C0.52427076,12.0000482 0.172780758,10.4573976 0.340594059,8.92673267 C1.35445545,-0.158415842 19.049505,-4.27722772 28.8554455,7.0970297 C29.2039993,7.19807829 29.5453634,7.32245127 29.8772277,7.46930693" id="Stroke-69-2" stroke="#4A4A4A" stroke-width="2" stroke-linecap="round" stroke-linejoin="round"></path>
                        </g>
                        <g id="Group-74" stroke-linecap="round" stroke-linejoin="round" transform="translate(59.584158, 38.811881)" stroke="#4A4A4A" stroke-width="2">
                            <path d="M13.9960396,0.499009901 L13.7663366,3.33465347 C13.5287129,10.1465347 9.71881188,13.3148515 6.42376238,12.9663366 C3.25544554,12.8712871 0.0871287129,10.3287129 1.21188119,4.73663366 L0.744554455,3.31881188" id="Stroke-73"></path>
                        </g>
                        <g id="Group-78" transform="translate(51.663366, 22.970297)">
                            <path d="M13.750495,20.8475248 C13.750495,20.8475248 7.41386139,23.1366337 3.3029703,17.9881188 C0.134653465,14.0277228 -0.942574257,9.27524752 1.71881188,4.78415842 C2.46015177,3.5087545 3.116368,2.18573792 3.68316832,0.823762376" id="Fill-75" fill="#FFFFFF" fill-rule="nonzero"></path>
                            <path d="M15.1287129,20.0158416 C15.1287129,20.0158416 9.03762376,22.2732673 4.11089109,18.0594059 C0.293069307,14.7960396 -0.641584158,9.63960396 1.31485149,4.93465347 C2.16237624,2.89108911 2.8990099,1.56831683 3.35049505,0.0554455446" id="Stroke-77" stroke="#4A4A4A" stroke-width="2" stroke-linecap="round" stroke-linejoin="round"></path>
                        </g>
                        <g id="Group-82" transform="translate(54.831683, 27.722772)">
                            <line x1="1.18019802" y1="0.443564356" x2="1.00594059" y2="1.17227723" id="Fill-79"></line>
                            <line x1="1.18019802" y1="0.443564356" x2="1.00594059" y2="1.17227723" id="Stroke-81" stroke="#4A4A4A" stroke-width="1.5" stroke-linecap="round" stroke-linejoin="round"></line>
                        </g>
                        <g id="Group-86" transform="translate(65.128713, 29.306931)">
                            <line x1="0.665346535" y1="0.720792079" x2="0.546534653" y2="1.36237624" id="Fill-83"></line>
                            <line x1="0.665346535" y1="0.720792079" x2="0.546534653" y2="1.36237624" id="Stroke-85" stroke="#4A4A4A" stroke-width="1.5" stroke-linecap="round" stroke-linejoin="round"></line>
                        </g>
                        <g id="Group-90" transform="translate(58.000000, 30.099010)">
                            <path d="M0.356435644,0.237623762 C0.356435644,0.237623762 0.847524752,1.86930693 3.52475248,1.12475248" id="Fill-87" fill="#FFFFFF" fill-rule="nonzero"></path>
                            <path d="M0.514851485,0.601980198 C0.514851485,0.601980198 1.61584158,1.96435644 3.82574257,1.05346535" id="Stroke-89" stroke="#4A4A4A" stroke-width="1.5" stroke-linecap="round" stroke-linejoin="round"></path>
                        </g>
                        <polyline id="Stroke-95" stroke="#4A4A4A" stroke-width="2" stroke-linecap="round" stroke-linejoin="round" points="19.5207921 70.2653465 80.1940594 70.2653465 81.1920792 7.27128713 8.8990099 7.27128713 7.9009901 70.2653465 14.839604 70.2653465"></polyline>
                        <path d="M60.0514851,69.409901 C59.0613861,66.5346535 56.8831683,62.629703 53.1128713,61.4891089 C49.9285811,60.499868 46.5575103,60.2666322 43.2673267,60.8079208 L45.1524752,60.8079208 C41.8622917,60.2666322 38.4912209,60.499868 35.3069307,61.4891089 C31.5683168,62.6059406 28.7247525,66.4633663 27.7346535,69.3386139" id="Stroke-97" fill="#E0E0E0" fill-rule="nonzero"></path>
                        <path d="M59.9326733,68.190099 C58.9196832,64.9635619 56.3600872,62.4574766 53.1128713,61.5128713 C49.9285811,60.5236304 46.5575103,60.2903946 43.2673267,60.8316832 L45.1524752,60.8316832 C41.8622917,60.2903946 38.4912209,60.5236304 35.3069307,61.5128713 C32.0597147,62.4574766 29.5001187,64.9635619 28.4871287,68.190099" id="Stroke-97-2" stroke="#4A4A4A" stroke-width="2" fill="#E0E0E0" fill-rule="nonzero" stroke-linecap="round" stroke-linejoin="round"></path>
                        <g id="Group-102" transform="translate(30.277228, 44.356436)">
                            <path d="M3.16831683,10.4554455 C0.118811881,10.2653465 -1.65544554,5.06930693 2.37623762,3.54851485 L14.3128713,0.245544554 L26.3841584,3.41386139 C30.3445545,4.93465347 28.5861386,10.4792079 25.7742574,10.3287129 L15.4930692,15.2633664 L6.6158468,16 L3.16831683,10.4554455 Z" id="Fill-99" fill="#FFFFFF" fill-rule="nonzero"></path>
                            <path d="M3.16831683,10.4079208 C-0.15049505,10.5821782 -1.45742574,5.13267327 2.5980198,3.61188119 L14.8118812,1.45742574 L26.0594059,3.65940594 C30.019802,4.96633663 28.5069307,10.3128713 25.5762376,10.2574257" id="Stroke-101" stroke="#4A4A4A" stroke-width="2" stroke-linecap="round" stroke-linejoin="round"></path>
                        </g>
                        <g id="Group-106" transform="translate(39.782178, 59.405941)" fill="#FFFFFF" fill-rule="nonzero">
                            <path d="M8.45940594,3.26336634 C8.25346535,5.47326733 7.5009901,8.55445545 4.8950495,8.57821782 C1.02178218,8.57821782 0.768316832,4.83960396 0.768316832,4.83960396 L0.910891089,3.33465347 L3.34257426,0.213861386" id="Fill-103"></path>
                        </g>
                        <g id="Group-110" transform="translate(33.445545, 43.861386)">
                            <path d="M0.0554455446,10.9584158 C0.659126432,16.4642477 5.32061716,20.6267812 10.8594059,20.6060185 C16.5540348,20.5805727 21.3418098,16.3255267 22.0356436,10.6732673 L10.7643564,0.463572763 L2.37623762,4.4950495" id="Fill-107" fill="#FFFFFF" fill-rule="nonzero"></path>
                            <path d="M0.0554455446,10.9584158 C0.491089109,14.9188119 3.06534653,17.4059406 6.62178218,18.8792079 M13.9881188,19.2752475 C18.249505,18.0316832 21.4970297,15.180198 22.0356436,10.6574257" id="Shape" stroke="#4A4A4A" stroke-width="2" stroke-linecap="round" stroke-linejoin="round"></path>
                        </g>
                        <path d="M54.9821782,43.429703 C56.9148515,45.8693069 56.3049505,50.4792079 54.190099,50.970297 C52.0752475,51.4613861 51.6633663,47.9128713 51.6633663,47.9128713 C51.6633663,47.9128713 47.9643564,49.2673267 45.0970297,47.6910891 C42.5544554,49.0217822 37.8811881,48.1821782 37.8811881,48.1821782 C37.8811881,48.1821782 36.2970297,51.7386139 34.3009901,50.6930693 C33.5089109,50.3683168 30.2772277,39.4217822 40.9069307,40.8950495 C43.7029703,36.7287129 49.9049505,38.6455446 50.4118812,40.8950495 C52.5188119,41.5524752 53.6990099,41.4257426 55.0376238,43.1207921" id="Fill-111" fill="#E6E6E6" fill-rule="nonzero"></path>
                        <path d="M54.4990099,50.970297 C52.3128713,51.4693069 51.8693069,47.9128713 51.8693069,47.9128713 C51.8693069,47.9128713 48.0039604,49.9643564 44.5029703,48.1108911 C41.3346535,49.9643564 37.6435644,48.1821782 37.6435644,48.1821782 C37.6435644,48.1821782 35.9722772,51.7386139 33.9445545,50.6930693 C33.0970297,50.3683168 31.5683168,40.3960396 41.0732673,41.1881188 C43.0772277,37.4653465 48.6217822,39.0732673 49.6118812,41.3069307 C57.0811881,41.7742574 56.6851485,50.4792079 54.4990099,50.970297 Z" id="Stroke-113" stroke="#4A4A4A" stroke-width="2" stroke-linecap="round" stroke-linejoin="round"></path>
                        <g id="Group-118" transform="translate(48.495050, 51.485149)">
                            <line x1="0.8" y1="0.60990099" x2="0.792079208" y2="1.21188119" id="Fill-115"></line>
                            <line x1="0.8" y1="0.60990099" x2="0.792079208" y2="1.21188119" id="Stroke-117" stroke="#4A4A4A" stroke-width="1.5" stroke-linecap="round" stroke-linejoin="round"></line>
                        </g>
                        <g id="Group-122" transform="translate(38.198020, 51.485149)">
                            <line x1="1.10891089" y1="0.60990099" x2="1.09306931" y2="1.21188119" id="Fill-119"></line>
                            <line x1="1.10891089" y1="0.60990099" x2="1.09306931" y2="1.21188119" id="Stroke-121" stroke="#4A4A4A" stroke-width="1.5" stroke-linecap="round" stroke-linejoin="round"></line>
                        </g>
                        <g id="Group-126" transform="translate(42.158416, 53.069307)">
                            <path d="M3.61188119,0.213861386 C2.67118144,1.08970431 1.22954266,1.14034736 0.22970297,0.332673267" id="Fill-123" fill="#FFFFFF" fill-rule="nonzero"></path>
                            <path d="M3.61188119,0.213861386 C2.67118144,1.08970431 1.22954266,1.14034736 0.22970297,0.332673267" id="Stroke-125" stroke="#4A4A4A" stroke-width="1.5" stroke-linecap="round" stroke-linejoin="round"></path>
                        </g>
                    </g>
                    <path d="M40.0277228,63.1287129 C40.1623762,64.5148515 40.819802,67.4534653 43.6475248,67.5168317 C46.4752475,67.580198 47.4415842,64.8158416 47.7425743,63.2633663" id="Path" stroke="#4A4A4A" stroke-width="2" stroke-linecap="round" stroke-linejoin="round"></path>
                    <path d="M8.93861386,20.7366337 C8.93861386,20.7366337 15.3544554,12.9742574 22.4039604,16.9584158 C27.2514851,14.8831683 33.0891089,15.5089109 34.4435644,19.390099 C35.2356436,22.0435644 32.8594059,22.819802 30.0554455,21.6633663 C26.8237624,23.8732673 19.8851485,20.990099 20.550495,23.5643564 C21.5881188,24.8316832 27.2277228,25.2752475 30.2693069,24.2455446 C35.0217822,26.3287129 37.3980198,24.8712871 38.5465347,23.4534653 C39.6950495,22.0356436 40.0435644,20.1029703 39.7029703,19.6277228 C39.3623762,19.1524752 40.8594059,12.9742574 31.5128713,11.8732673 C22.1663366,10.7722772 21.9366337,13.5524752 21.9366337,13.5524752 C21.9366337,13.5524752 13.9049505,10.6376238 8.82772277,16 C8.73792617,17.5793023 8.77500888,19.1632639 8.93861386,20.7366337 L8.93861386,20.7366337 Z" id="Path" fill="#4A4A4A" fill-rule="nonzero" opacity="0.05"></path>
                    <path d="M19.6316832,25.0059406 C19.6316832,25.0059406 22.380198,29.2277228 29.5643564,27.3821782 C30.5739305,27.7764148 31.6053353,28.1122825 32.6534653,28.3881188 C32.6534653,28.3881188 34.1346535,34.3841584 31.2594059,38.2336634 C29.434646,40.5745637 26.8180384,42.1687509 23.9009901,42.7168317 C23.9009901,42.7168317 23.0217822,44.3643564 24.2019802,44.9108911 C25.3821782,45.4574257 26.7049505,50.1940594 26.7049505,50.1940594 L28.2415842,43.1762376 C28.2415842,43.1762376 36.2415842,41.2039604 36.4158416,35.2554455 C36.5828815,32.134034 36.2676265,29.0055289 35.4811881,25.980198 C35.4811881,25.980198 31.5207921,25.8534653 30.2534653,24.2455446 C28.970297,25.2594059 23.980198,25.980198 20.5188119,24.1584158 C19.5049505,24.5544554 19.6316832,25.0059406 19.6316832,25.0059406 Z" id="Path" fill="#4A4A4A" fill-rule="nonzero" opacity="0.05"></path>
                    <path d="M34.3960396,44.9663366 C34.3960396,44.9663366 34.609901,47.5960396 36.8594059,45.0376238 C39.1722772,45.3148515 41.809901,46.0910891 43.7425743,44.609901 C46.760396,45.4019802 50.2059406,44.9663366 50.9425743,44.4039604 C52.9386139,45.1009901 54.2772277,45.6633663 54.2772277,43.1762376 C55.4019802,44.2930693 55.5762376,46.5425743 55.5762376,46.5425743 C55.5762376,46.5425743 55.5762376,49.5683168 54.9821782,49.7742574 C54.3881188,49.980198 53.3267327,51.0415842 53.1524752,49.6 C52.9514821,48.6086794 52.4278547,47.7118283 51.6633663,47.049505 L49.0653465,48.229703 L44.3128713,47.0019802 L40.8356436,48.5148515 L37.2158416,47.2792079 L35.8217822,49.8138614 L33.7148515,50.1227723 L33.049505,46.0910891 L34.2772277,45.2118812" id="Path" fill="#4A4A4A" fill-rule="nonzero" opacity="0.05"></path>
                    <path d="M35.8217822,49.8138614 L38.380198,49.2356436 C38.380198,49.2356436 41.9287129,50.249505 44.2336634,49.6316832 C46.1199437,50.1104746 48.0882502,50.1699564 50,49.8059406 C50.5772072,50.5963626 51.389501,51.1840973 52.3207921,51.4851485 C52.3207921,51.4851485 51.5287129,59.4059406 45.5405941,61.9960396 C45.5183719,63.5504806 45.5765354,65.1050309 45.7148515,66.6534653 L47.449505,64.4356436 C47.449505,64.4356436 47.3940594,62.7564356 47.7425743,62.6693069 C48.0910891,62.5821782 53.8732673,60.1346535 55.3861386,54.6376238 L58.4435644,52.5069307 C58.4435644,52.5069307 59.6,47.8970297 57.6514851,47.1366337 C55.7029703,46.3762376 55.6950495,48.4277228 55.6950495,48.4277228 L54.4594059,50.1069307 C54.4594059,50.1069307 52.6376238,49.5445545 52.4554455,48.4752475 C52.2732673,47.4059406 51.8376238,47.4138614 51.8376238,47.4138614 C50.069096,47.7573988 48.268253,47.906141 46.4673267,47.8574257 L44.5346535,47.2475248 L41.4930693,47.7227723 L37.8891089,47.3267327 L35.8217822,49.8138614 Z" id="Path" fill="#4A4A4A" fill-rule="nonzero" opacity="0.05"></path>
                    <path d="M67.6950495,24.4039604 C67.6950495,24.4039604 64.2891089,27.0415842 57.8970297,26.8277228 C55.6,31.2158416 56.3128713,36.3326733 57.2633663,37.7663366 C58.2138614,39.2 61.8574257,41.1326733 67.1405941,40.7524752 C69.5643564,42.6613861 65.3108911,43.1287129 65.3108911,43.1287129 L63.8613861,45.9405941 L63.8613861,51.5643564 C63.8613861,51.5643564 61.0178218,49.1089109 61.3584158,43.7465347 C59.449505,42.7722772 54.9188119,41.7267327 54.039604,38.1069307 C53.160396,34.4871287 52.5980198,31.0415842 53.8732673,28.0237624 C54.5749559,26.3739358 55.1857713,24.6869216 55.7029703,22.970297 C55.7029703,22.970297 62.5861386,25.639604 67.6950495,24.4039604 Z" id="Path" fill="#4A4A4A" fill-rule="nonzero" opacity="0.05"></path>
                    <path d="M60.1306931,12.8475248 C60.1306931,12.8475248 54.5861386,18.0990099 57.0336634,20.3009901 C59.4811881,22.5029703 63.5920792,23.1841584 68.2574257,21.7742574 C70.4118812,22.0356436 69.4693069,24.8158416 69.4693069,24.8158416 L66.950495,24.1346535 C66.950495,24.1346535 58,24.6574257 56.2970297,23.7623762 L55.1405941,24.7049505 L54.5148515,26.4950495 C54.5148515,26.4950495 50.6811881,22.6138614 52.2019802,19.0415842 C53.2578283,16.8066597 55.0584844,15.008804 57.2950495,13.9564356 L60.1306931,12.8475248 Z" id="Path" fill="#4A4A4A" fill-rule="nonzero" opacity="0.05"></path>
                    <path d="M46.5861386,65.980198 C46.5861386,65.980198 49.5089109,62.8118812 52.6851485,64.8792079 C54.6035206,66.1575807 56.0914816,67.9850949 56.9544554,70.1227723 C56.9544554,70.1227723 61.1049505,70.3683168 59.8851485,67.3821782 C58.6653465,64.3960396 51.829703,61.0455446 51.829703,61.0455446 L48.2415842,62.6772277 L46.5861386,65.980198 Z" id="Path" fill="#4A4A4A" fill-rule="nonzero" opacity="0.05"></path>
                </g>
                <line x1="119.100466" y1="79.2079208" x2="0.511646626" y2="79.2079208" id="Stroke-25" stroke="#4A4A4A" stroke-width="2" stroke-linecap="round" stroke-linejoin="round"></line>
            </g>
        </g>
    </g>
</svg>