<?xml version="1.0" encoding="UTF-8"?>
<svg width="130px" height="130px" viewBox="0 0 130 130" version="1.1" xmlns="http://www.w3.org/2000/svg" xmlns:xlink="http://www.w3.org/1999/xlink">
    <title>Product / Pet / Default</title>
    <defs>
        <path d="M0.14711864,2.98928161 C-0.971525424,5.84902299 5.46779661,11.5234483 5.46779661,11.5234483 L5.46779661,11.5234483 L7.85830508,0.26612069 C7.78779661,0.257672414 7.66711864,0.253448276 7.50576271,0.253448276 L7.50576271,0.253448276 C6.01559322,0.253448276 1.05694915,0.667413793 0.14711864,2.98928161" id="path-1"></path>
        <path d="M4.45152542,21.6078736 C1.5579661,22.5526724 0.602033898,24.8548276 0.302372881,26.5599713 L0.302372881,26.5599713 C0.116610169,27.623046 0.903050847,28.5988218 1.94440678,28.5988218 L1.94440678,28.5988218 L11.8061017,28.5988218 L11.8061017,4.2691954 L3.5959322,0.643477011 L4.45152542,21.6078736 Z" id="path-3"></path>
        <path d="M7.33559322,1.52491379 C0.81220339,4.97885057 -1.78033898,13.2694253 1.54440678,20.0449425 L1.54440678,20.0449425 C2.24813559,21.4769253 3.09016949,22.600546 4.03932203,23.4467816 L4.03932203,23.4467816 L25.8494915,17.0739655 C27.099661,14.363477 26.8732203,11.0109195 25.1688136,7.54008621 L25.1688136,7.54008621 C22.8257627,2.76681034 18.1722034,0.0211206897 13.3450847,0.0211206897 L13.3450847,0.0211206897 C11.320678,0.0211206897 9.26372881,0.50408046 7.33559322,1.52491379" id="path-5"></path>
        <path d="M22.4216949,28.4042241 C22.4216949,33.0902011 11.0752542,32.6199138 6.52610169,32.9775575 L6.52610169,32.9775575 C1.00610169,33.9786782 0.589830508,40.2712356 0.589830508,40.2712356 L0.589830508,40.2712356 L30.120678,40.2712356 C34.9166102,4.71103448 16.0705085,0.05462644 16.0705085,0.05462644 L16.0705085,0.05462644" id="path-7"></path>
        <path d="M10.0230508,2.84706897 C-7.54576271,13.2215517 2.70101695,32.2358046 12.3552542,34.7674713 L12.3552542,34.7674713 L13.1023729,41.0403161 L13.5837288,71.3217529 C13.5905085,71.8708908 13.2840678,72.366523 12.8054237,72.6030747 L12.8054237,72.6030747 C11.1905085,73.4000287 8.94644068,76.3006034 9.02779661,80.4008333 L9.02779661,80.4008333 C9.04949153,81.4906609 9.84,82.3861782 10.8894915,82.3861782 L10.8894915,82.3861782 L22.8677966,82.3861782 L58.5871186,79.2617241 C67.7071186,59.8504023 45.079322,30.8516954 37.0711864,26.7162644 L37.0711864,26.7162644 C35.3559322,25.6179885 33.700339,24.8224425 34.3742373,22.8511782 L34.3742373,22.8511782 C37.3301695,14.1973276 30.4311864,0.146436782 18.9830508,0.146436782 L18.9830508,0.146436782 C16.2345763,0.146436782 13.2230508,0.957471264 10.0230508,2.84706897" id="path-9"></path>
        <path d="M0.193898305,1.00112069 L0.193898305,30.288477 L12.1816949,30.288477 C13.9335593,30.288477 15.2976271,27.8229885 14.9328814,25.5123851 L14.9328814,25.5123851 C14.5301695,22.9483333 12.5884746,20.5828161 12.5884746,20.5828161 L12.5884746,20.5828161 C12.1410169,14.9013506 13.8345763,2.74005747 13.8888136,0.0732183908 L13.8888136,0.0732183908 L0.193898305,1.00112069 Z" id="path-11"></path>
        <path d="M2.64338983,1.78962644 C0.65152542,3.03011494 -0.44,4.93942529 0.20542373,6.05741379 L0.20542373,6.05741379 C0.85220339,7.1754023 3.65355932,8.05683908 5.50305085,7.06698276 L5.50305085,7.06698276 C7.35118644,6.07853448 8.06169492,2.68232759 7.41762712,1.56574713 L7.41762712,1.56574713 C7.11525424,1.04617816 6.49152542,0.789913793 5.70915254,0.789913793 L5.70915254,0.789913793 C4.81152542,0.789913793 3.70644068,1.12643678 2.64338983,1.78962644" id="path-13"></path>
    </defs>
    <g id="Product-/-Pet-/-Default" stroke="none" stroke-width="1" fill="none" fill-rule="evenodd">
        <rect id="Rectangle" fill-opacity="0" fill="#FFFFFF" x="0" y="0" width="130" height="130"></rect>
        <g id="Default">
            <rect id="Rectangle" fill-opacity="0" fill="#FFFFFF" fill-rule="nonzero" x="0" y="0" width="130" height="130"></rect>
            <g id="Group-162" transform="translate(2.000000, 27.000000)">
                <g id="Group-25" transform="translate(6.423729, 0.163615)">
                    <g id="Group-4" transform="translate(62.728814, 86.172414)">
                        <path d="M25.3726541,0.317091954 C25.3726541,0.317091954 44.3618369,1.81384483 44.3289919,8.90194828 L0.328949153,8.90194828" id="Fill-1" fill="#ECECEC" fill-rule="nonzero"></path>
                        <path d="M25.9418292,0.317091954 C25.9418292,0.317091954 45.3625844,1.81384483 45.3289928,8.90194828 L0.328949153,8.90194828" id="Stroke-3" stroke="#4A4A4A" stroke-width="2" stroke-linecap="round" stroke-linejoin="round"></path>
                    </g>
                    <g id="Group-8" transform="translate(23.406780, 15.488506)">
                        <path d="M11.7404746,19.0079167 C11.7404746,19.0079167 -2.96054237,8.34056034 0.978440678,2.27047414 C4.87674576,-3.74047414 16.9296271,4.25159483 16.9296271,4.25159483" id="Fill-5" fill="#FFFFFF" fill-rule="nonzero"></path>
                        <path d="M11.7404746,19.0079167 C11.7404746,19.0079167 -2.96054237,8.34056034 0.978440678,2.27047414 C4.87674576,-3.74047414 16.9296271,4.25159483 16.9296271,4.25159483" id="Stroke-7" stroke="#4A4A4A" stroke-width="2" stroke-linecap="round" stroke-linejoin="round"></path>
                    </g>
                    <g id="Group-12" transform="translate(28.830508, 19.994253)">
                        <path d="M1.06386441,0.0819482759 C1.06386441,0.0819482759 0.33979661,1.62798276 2.72894915,3.41338506 L4.58250847,4.7989023" id="Fill-9" fill="#F7F7F7" fill-rule="nonzero"></path>
                        <path d="M1.06386441,0.0819482759 C1.06386441,0.0819482759 0.33979661,1.62798276 2.72894915,3.41338506 L4.58250847,4.7989023" id="Stroke-11" stroke="#4A4A4A" stroke-width="2" stroke-linecap="round" stroke-linejoin="round"></path>
                    </g>
                    <g id="Group-16" transform="translate(46.457627, 0.000000)">
                        <path d="M0.886508475,13.782658 C0.886508475,13.782658 0.304813559,0.510416667 6.53667797,0.0570258621 C12.8282034,-0.40058908 14.2221017,16.200273 14.2221017,16.200273" id="Fill-13" fill="#FFFFFF" fill-rule="nonzero"></path>
                        <path d="M0.886508475,13.782658 C0.886508475,13.782658 0.304813559,0.510416667 6.53667797,0.0570258621 C12.8282034,-0.40058908 14.2221017,16.200273 14.2221017,16.200273" id="Stroke-15" stroke="#4A4A4A" stroke-width="1.875" stroke-linecap="round" stroke-linejoin="round"></path>
                    </g>
                    <path d="M12.7267797,46.5857644 C12.7267797,46.5857644 31.3722034,44.5117126 31.7437288,47.6403908 C32.1152542,50.770477 30.9383051,51.4209943 34.0027119,53.7667989 C37.0684746,56.1111954 43.3288136,76.5813678 43.3288136,76.5813678 C43.3288136,76.5813678 37.2488136,91.5897299 36.5274576,91.5982613 C35.8061017,91.6052184 15.1023729,90.7209655 14.8244068,90.5928333 C12.1125424,89.3467126 10.1233898,48.4838103 10.1233898,48.4838103 L12.7267797,46.5857644 Z" id="Fill-17" fill="#FFFFFF" fill-rule="nonzero"></path>
                    <path d="M33.0551864,70.2475546 C33.0551864,70.2475546 35.124339,70.2475546 33.783322,75.4094511 C33.284339,77.3243937 32.843661,79.2604569 32.6551864,81.2373534 C32.3785763,84.1520086 32.3962034,86.5344224 32.3514576,86.797727 C32.2890847,87.1736753 28.0165424,88.973158 28.0165424,88.973158 C28.0165424,88.973158 28.8775593,68.88175 33.0551864,70.2475546" id="Fill-19" fill-opacity="0.04" fill="#4A4A4A" fill-rule="nonzero"></path>
                    <path d="M12.8101695,55.4657471 C12.8101695,55.4657471 9.78101695,57.7749425 10.3749153,60.3741954 C10.9769492,61.6822701 13.5938983,62.963592 15.9125424,63.4099425 C17.4311864,63.701408 19.0162712,63.4507759 20.460339,62.8777011 C27.9749153,59.8926437 23.6820339,60.2010057 22.8115254,60.2164943 C17.7376271,60.3037931 12.8101695,55.4657471 12.8101695,55.4657471" id="Fill-21" fill-opacity="0.04" fill="#4A4A4A" fill-rule="nonzero"></path>
                    <path d="M5.46779661,51.2306264 C5.46779661,51.2306264 -0.971525424,45.5562011 0.147118644,42.6950517 C1.15457627,40.1211437 7.13694915,39.8930402 7.85830508,39.9732989" id="Fill-23" fill="#FFFFFF" fill-rule="nonzero"></path>
                </g>
                <g id="Fill-26-Clipped" transform="translate(6.423729, 39.870511)">
                    <mask id="mask-2" fill="white">
                        <use xlink:href="#path-1"></use>
                    </mask>
                    <g id="path-1"></g>
                    <path d="M6.53111864,-1.31638218 C6.53111864,-1.31638218 2.47823729,2.87396264 3.52094915,8.91166379 C4.56501695,14.9493649 8.33586441,13.4568362 8.664,12.9457155 C8.99213559,12.4345948 9.3216271,-0.69120977 9.2131525,-1.0319569 C9.1019661,-1.37270402 6.53111864,-1.31638218 6.53111864,-1.31638218" id="Fill-26" fill-opacity="0.04" fill="#4A4A4A" fill-rule="nonzero" mask="url(#mask-2)"></path>
                </g>
                <g id="Group-37" transform="translate(6.423729, 29.732580)">
                    <path d="M5.46779661,21.6616609 C5.46779661,21.6616609 -0.971525424,15.9872356 0.147118644,13.1260862 C1.15457627,10.5521782 7.13694915,10.3240747 7.85830508,10.4043333" id="Stroke-29" stroke="#4A4A4A" stroke-width="2" stroke-linecap="round" stroke-linejoin="round"></path>
                    <g id="Group-34" transform="translate(17.983051, 0.000000)">
                        <path d="M10.1038644,8.28254885 C10.1038644,8.28254885 8.9079322,0.753727011 6.13369492,0.269359195 C3.63742373,-0.167135057 0.48759322,4.72019253 0.192,5.36226149" id="Fill-31" fill="#FFFFFF" fill-rule="nonzero"></path>
                        <path d="M10.1038644,8.28254885 C10.1038644,8.28254885 8.9079322,0.753727011 6.13369492,0.269359195 C3.63742373,-0.167135057 0.48759322,4.72019253 0.192,5.36226149" id="Stroke-33" stroke="#4A4A4A" stroke-width="2" stroke-linecap="round" stroke-linejoin="round"></path>
                    </g>
                    <path d="M20.2969492,41.1598592 L20.2969492,65.4894856 L10.4366102,65.4894856 C9.39525424,65.4894856 8.60745763,64.5137098 8.79457627,63.4506351 C9.09288136,61.7454914 10.0488136,59.4433362 12.9437288,58.4971293 L12.0867797,37.5341408" id="Fill-35" fill="#FFFFFF" fill-rule="nonzero"></path>
                </g>
                <g id="Fill-38-Clipped" transform="translate(14.915254, 66.623385)">
                    <mask id="mask-4" fill="white">
                        <use xlink:href="#path-3"></use>
                    </mask>
                    <g id="path-3"></g>
                    <path d="M8.79688136,3.7822931 C8.79688136,3.7822931 7.384,3.94562644 9.24705085,5.0072931 L8.97450847,21.3321782 C8.97450847,21.3321782 5.47349153,24.236977 6.15552542,27.8767759 C6.83620339,31.5165747 12.3575593,28.646977 12.3575593,28.646977 L11.8056949,4.26947701 L8.79688136,3.7822931 Z" id="Fill-38" fill-opacity="0.04" fill="#4A4A4A" fill-rule="nonzero" mask="url(#mask-4)"></path>
                </g>
                <g id="Group-45" transform="translate(11.932203, 35.364764)">
                    <path d="M14.7884746,35.5276753 L14.7884746,59.8573017 L4.92813559,59.8573017 C3.88677966,59.8573017 3.09898305,58.8815259 3.28610169,57.8184511 C3.58440678,56.1133075 4.54033898,53.8111523 7.43525424,52.8649454 L6.57830508,31.9019569" id="Stroke-41" stroke="#4A4A4A" stroke-width="2" stroke-linecap="round" stroke-linejoin="round"></path>
                    <path d="M4.03905085,23.4465 C3.08989831,22.6002644 2.24922034,21.4780517 1.54413559,20.0446609 C-1.78061017,13.2691437 0.811932203,4.97997701 7.33667797,1.52604023 C13.8587119,-1.92789655 21.8437966,0.765695402 25.1685424,7.5398046 C26.8729492,11.012046 27.0993898,14.3631954 25.8505763,17.075092" id="Fill-43" fill="#FFFFFF" fill-rule="nonzero"></path>
                </g>
                <g id="Fill-46-Clipped" transform="translate(11.932203, 35.364764)">
                    <mask id="mask-6" fill="white">
                        <use xlink:href="#path-5"></use>
                    </mask>
                    <g id="path-5"></g>
                    <path d="M7.33613559,1.52547701 C7.33613559,1.52547701 0.563254237,12.8405345 6.45071186,19.5540977 C10.6107119,24.2978046 15.9042712,24.7962529 15.9042712,24.7962529 L-1.71335593,26.3155345 L-2.83335593,13.1559368 L5.22630508,-0.503517241 L7.33613559,1.52547701" id="Fill-46" fill-opacity="0.04" fill="#4A4A4A" fill-rule="nonzero" mask="url(#mask-6)"></path>
                </g>
                <g id="Group-61" transform="translate(11.932203, 35.364764)">
                    <path d="M4.03905085,23.4465 C3.08989831,22.6002644 2.24922034,21.4780517 1.54413559,20.0446609 C-1.78061017,13.2691437 0.811932203,4.97997701 7.33667797,1.52604023 C13.8587119,-1.92789655 21.8437966,0.765695402 25.1685424,7.5398046 C26.8729492,11.012046 27.0993898,14.3631954 25.8505763,17.075092" id="Stroke-49" stroke="#4A4A4A" stroke-width="2" stroke-linecap="round" stroke-linejoin="round"></path>
                    <line x1="7.5559322" y1="54.4523764" x2="7.45288136" y2="53.090796" id="Stroke-51" stroke="#4A4A4A" stroke-width="1.875" stroke-linecap="round" stroke-linejoin="round"></line>
                    <path d="M26.3350508,34.6200489 C26.3350508,34.6200489 25.4753898,33.8076063 23.2828475,35.5296466 C20.4814915,37.7332385 20.8286102,49.4059397 20.8286102,49.4059397 C20.8286102,49.4059397 16.5248814,49.0257672 14.7879322,50.9604224 C13.052339,52.8950776 15.2489492,54.1454224 15.2489492,54.1454224 L23.2828475,52.2924339 L26.3350508,34.6200489 Z" id="Fill-53" fill-opacity="0.04" fill="#4A4A4A" fill-rule="nonzero"></path>
                    <path d="M19.4177627,34.772681 C16.6909831,36.3539167 16.1309831,41.3440316 16.0347119,41.6974511 L15.2496271,34.1573649" id="Fill-55" fill-opacity="0.04" fill="#4A4A4A" fill-rule="nonzero"></path>
                    <line x1="14.7884746" y1="59.8577241" x2="14.7884746" y2="37.1079253" id="Stroke-57" stroke="#4A4A4A" stroke-width="2" stroke-linecap="round" stroke-linejoin="round"></line>
                    <path d="M27.1891525,19.6404109 C27.1891525,19.6404109 46.0352542,24.298227 41.239322,59.8570201 L11.7084746,59.8570201 C11.7084746,59.8570201 12.1247458,53.5658707 17.6447458,52.56475 C22.1938983,52.2056983 33.5416949,52.6759856 33.5416949,47.9914167" id="Fill-59" fill="#FFFFFF" fill-rule="nonzero"></path>
                </g>
                <g id="Fill-62-Clipped" transform="translate(23.050847, 54.950971)">
                    <mask id="mask-8" fill="white">
                        <use xlink:href="#path-7"></use>
                    </mask>
                    <g id="path-7"></g>
                    <path d="M16.5247458,-7.48926149 L16.0447458,-3.95506609 C14.8108475,-1.37975 15.3477966,1.7165431 17.3559322,3.69625575 C20.5057627,6.80099713 23.8983051,11.4095316 23.7545763,16.6530948 C23.5091525,25.5040718 23.0155932,30.3012845 23.0155932,30.3012845 C23.0155932,30.3012845 20.4840678,33.77775 19.899661,36.810681 C6.47186441,36.9106523 3.67728814,38.7171753 6.33627119,34.1255374 C8.99525424,29.5310833 0.589830508,35.4955661 0.589830508,35.4955661 L0.589830508,43.2806523 C0.589830508,43.2806523 14.5450847,45.4236983 18.1464407,45.4645316 C21.7505085,45.5053649 32.0244068,44.4943879 32.0244068,44.4943879 L35.399322,20.6350489 C35.399322,20.6350489 29.720678,4.56079598 28.9966102,3.34706034 C28.2725424,2.13332471 23.1118644,-5.34762356 21.1661017,-6.66133046 C19.2176271,-7.9764454 16.5247458,-7.48926149 16.5247458,-7.48926149" id="Fill-62" fill-opacity="0.04" fill="#4A4A4A" fill-rule="nonzero" mask="url(#mask-8)"></path>
                </g>
                <g id="Group-69" transform="translate(23.050847, 12.836029)">
                    <path d="M16.0705085,42.1691466 C16.0705085,42.1691466 34.9166102,46.8269626 30.120678,82.3857557 L0.589830508,82.3857557 C0.589830508,82.3857557 1.00610169,76.0946063 6.52610169,75.0934856 C11.0752542,74.7344339 22.4230508,75.2047213 22.4230508,70.5201523" id="Stroke-65" stroke="#4A4A4A" stroke-width="1.875" stroke-linecap="round" stroke-linejoin="round"></path>
                    <path d="M39.1399322,82.3864598 L27.1602712,82.3864598 C26.1121356,82.3864598 25.3202712,81.4895345 25.2985763,80.4011149 C25.2172203,76.3008851 27.4626441,73.4003103 29.0762034,72.6033563 C29.5548475,72.3668046 29.8626441,71.8697644 29.8545085,71.3220345 L29.3745085,41.0420057 L28.6260339,34.7677529 C18.9717966,32.2360862 8.72501695,13.2218333 26.2938305,2.84735057 C42.8212881,-6.91322414 54.3101017,12.1207414 50.6450169,22.8514598 C49.9711186,24.8227241 51.6267119,25.6182701 53.3419661,26.716546 C61.3514576,30.850569 83.9778983,59.8506839 74.8592542,79.2620057" id="Fill-67" fill="#ECECEC" fill-rule="nonzero"></path>
                </g>
                <g id="Fill-70-Clipped" transform="translate(39.322034, 12.836029)">
                    <mask id="mask-10" fill="white">
                        <use xlink:href="#path-9"></use>
                    </mask>
                    <g id="path-9"></g>
                    <path d="M48.0104407,60.0034569 C42.0172203,60.3977098 36.8348475,64.2867328 35.6226441,70.7609282 C34.8321356,65.3526236 34.6192542,65.3526236 34.6192542,65.3526236 C34.6192542,65.3526236 35.704,59.6613017 41.1317966,58.7080546 C44.0050169,58.2039741 46.7806102,57.7027098 48.1812881,58.168773 C48.8362034,58.3884282 49.1412881,59.9006695 48.0104407,60.0034569" id="Fill-70" fill-opacity="0.04" fill="#4A4A4A" fill-rule="nonzero" mask="url(#mask-10)"></path>
                </g>
                <g id="Group-77" stroke-linecap="round" stroke-linejoin="round" transform="translate(39.322034, 12.836029)" stroke="#4A4A4A" stroke-width="2">
                    <path d="M22.8687458,82.3864598 L10.8890847,82.3864598 C9.84094915,82.3864598 9.04908475,81.4895345 9.02738983,80.4011149 C8.9460339,76.3008851 11.1914576,73.4003103 12.8050169,72.6033563 C13.283661,72.3668046 13.5914576,71.8697644 13.583322,71.3220345 L13.103322,41.0420057 L12.3548475,34.7677529 C2.70061017,32.2360862 -7.54616949,13.2218333 10.0226441,2.84735057 C26.5501017,-6.91322414 38.0389153,12.1207414 34.3738305,22.8514598 C33.6999322,24.8227241 35.3555254,25.6182701 37.0707797,26.716546 C45.0802712,30.850569 67.7067119,59.8506839 58.5880678,79.2620057" id="Stroke-73"></path>
                    <path d="M47.4303729,57.8515402 C43.0046102,57.1855345 39.4290169,59.1469425 37.1835932,61.5532931" id="Stroke-75"></path>
                </g>
                <g id="Fill-78-Clipped" transform="translate(63.457627, 64.933730)">
                    <mask id="mask-12" fill="white">
                        <use xlink:href="#path-11"></use>
                    </mask>
                    <g id="path-11"></g>
                    <path d="M11.1722034,29.7593333 C11.1722034,29.7593333 12.2610169,26.0251954 10.6461017,24.8508851 C9.70237288,24.1623506 8.19728814,24.5228103 6.27728814,24.2749943 C4.53220339,24.0497069 3.4840678,21.9320057 4.54033898,20.4718621 C4.82779661,20.0747931 5.24135593,19.8002241 5.82983051,19.7762874 C6.64610169,19.7439023 7.29694915,19.7157414 7.79728814,19.6960287 C8.54576271,19.6622356 9.12474576,19.0229828 9.10983051,18.2443333 C9.02983051,13.8329253 9.18169492,0.502954023 14.0494915,1.78005172 C13.120678,5.96617241 10.1077966,18.2246207 11.8650847,21.7320632 C13.6223729,25.2395057 15.2820339,29.6283851 15.2820339,29.6283851 L14.2488136,31.371546 L11.1722034,29.7593333 Z" id="Fill-78" fill-opacity="0.04" fill="#4A4A4A" fill-rule="nonzero" mask="url(#mask-12)"></path>
                </g>
                <g id="Group-93" transform="translate(47.457627, 17.341776)">
                    <path d="M29.8893559,47.665454 C29.8337627,50.3322931 28.1402034,62.4935862 28.587661,68.1736437 C28.587661,68.1736437 30.5307119,70.540569 30.9334237,73.1032126 C31.2968136,75.4152241 29.9327458,77.8807126 28.1822373,77.8807126 L16.1944407,77.8807126 L16.1944407,48.5933563" id="Stroke-81" stroke="#4A4A4A" stroke-width="2" stroke-linecap="round" stroke-linejoin="round"></path>
                    <path d="M13.9915932,47.933546 C13.9915932,47.933546 16.4376949,48.6840345 18.6600678,47.6448966" id="Stroke-83" stroke="#4A4A4A" stroke-width="2" stroke-linecap="round" stroke-linejoin="round"></path>
                    <line x1="25.2296949" y1="68.1880057" x2="28.588339" y2="68.2443276" id="Stroke-85" stroke="#4A4A4A" stroke-width="2" stroke-linecap="round" stroke-linejoin="round"></line>
                    <path d="M1.59755932,1.17656322 C-0.746847458,3.02391954 2.69857627,9.48262644 2.69857627,9.48262644 C2.69857627,9.48262644 -2.70074576,22.9787471 7.54738983,22.5323966 C8.99552542,27.9139483 11.2287458,31.4932011 11.2287458,31.4932011 L24.0409492,27.9139483 L25.1772203,20.7906437 L17.5202712,15.9582299 C17.5202712,15.9582299 22.7419661,6.92279885 10.3392542,5.9442069 C7.07281356,1.59897701 3.73179661,-0.504643678 1.59755932,1.17656322" id="Fill-87" fill="#FFFFFF" fill-rule="nonzero"></path>
                    <path d="M16.9498305,9.48318966 C17.3091525,9.81689655 17.6155932,10.1900287 17.8705085,10.5856897 C19.2725424,12.770977 18.6122034,15.7504023 16.4630508,17.1359195 C14.4467797,18.4327299 11.3213559,18.0300287 8.40610169,12.310546" id="Fill-89" fill="#FFFFFF" fill-rule="nonzero"></path>
                    <path d="M8.23281356,12.6320029 C10.1609492,15.0735546 12.4362034,18.1895603 10.2612881,20.9704511 C8.75755932,22.893842 5.96162712,22.9769167 3.99416949,21.5745029 C3.35959322,21.1225201 2.80772881,20.5283247 2.4280678,19.8074052" id="Fill-91" fill="#FFFFFF" fill-rule="nonzero"></path>
                </g>
                <g id="Group-101" transform="translate(49.813559, 24.382006)">
                    <path d="M14.5938983,2.44295977 C14.9532203,2.77666667 15.259661,3.14979885 15.5145763,3.54545977 C16.9166102,5.73074713 16.2562712,8.71017241 14.1071186,10.0956897 C12.0908475,11.3925 8.96542373,10.9897989 6.05016949,5.27031609" id="Stroke-95" stroke="#4A4A4A" stroke-width="1.875" stroke-linecap="round" stroke-linejoin="round"></path>
                    <path d="M5.87688136,5.59177299 C7.80501695,8.03332471 10.0802712,11.1493305 7.90535593,13.9302213 C6.40162712,15.8536121 3.60569492,15.9366868 1.63823729,14.534273 C1.00366102,14.0822902 0.45179661,13.4880948 0.07213559,12.7671753" id="Stroke-97" stroke="#4A4A4A" stroke-width="1.875" stroke-linecap="round" stroke-linejoin="round"></path>
                    <path d="M8.77288136,1.56574713 C9.4183051,2.68232759 8.70644068,6.07853448 6.85830508,7.06698276 C5.01016949,8.05683908 2.20745763,7.17399425 1.5620339,6.05741379 C0.91661017,4.93942529 2.00813559,3.03011494 3.99864407,1.78961663 C5.98915254,0.549137931 8.12610169,0.449166667 8.77288136,1.56574713" id="Fill-99" fill="#ECECEC" fill-rule="nonzero"></path>
                </g>
                <g id="Fill-102-Clipped" transform="translate(51.169492, 24.382006)">
                    <mask id="mask-14" fill="white">
                        <use xlink:href="#path-13"></use>
                    </mask>
                    <g id="path-13"></g>
                    <path d="M0.98155932,5.81593391 C0.98155932,5.81593391 3.79511864,2.9491523 6.53681356,3.64331897 C9.2771525,4.33748563 6.95715254,0.78920977 6.95715254,0.78920977 C6.95715254,0.78920977 4.13410169,0.425933908 3.72732203,0.920158046 C3.32054237,1.41438218 0.43240678,4.02067529 0.49749153,4.57122126 C0.56122034,5.12317529 0.98155932,5.81593391 0.98155932,5.81593391" id="Fill-102" fill-opacity="0.04" fill="#4A4A4A" fill-rule="nonzero" mask="url(#mask-14)"></path>
                </g>
                <g id="Group-161" transform="translate(0.000000, 5.669362)">
                    <path d="M58.5864407,20.2783908 C59.2318644,21.3949713 58.52,24.7911782 56.6718644,25.7796264 C54.8237288,26.7694828 52.0210169,25.8866379 51.3755932,24.7700575 C50.7301695,23.652069 51.8216949,21.7427586 53.8122034,20.5022603 C55.8027119,19.2617816 57.939661,19.1618103 58.5864407,20.2783908 Z" id="Stroke-105" stroke="#4A4A4A" stroke-width="1.875" stroke-linecap="round" stroke-linejoin="round"></path>
                    <line x1="125" y1="89.514546" x2="8.41166102" y2="89.5531264" id="Stroke-107" stroke="#4A4A4A" stroke-width="2" stroke-linecap="round" stroke-linejoin="round"></line>
                    <path d="M38.4381017,64.7418075 C35.5608136,68.4618649 35.2150508,81.2919799 35.2150508,81.2919799" id="Stroke-109" stroke="#4A4A4A" stroke-width="2" stroke-linecap="round" stroke-linejoin="round"></path>
                    <path d="M30.6520678,64.7363161 C26.2764746,65.8317759 23.7124068,64.7363161 23.7124068,64.7363161" id="Stroke-111" stroke="#4A4A4A" stroke-width="2" stroke-linecap="round" stroke-linejoin="round"></path>
                    <g id="Group-116" transform="translate(59.389831, 15.896552)">
                        <line x1="0.561762712" y1="0.373554598" x2="1.03905085" y2="1.03252011" id="Fill-113" fill="#FFFFFF" fill-rule="nonzero"></line>
                        <line x1="0.561762712" y1="0.373554598" x2="1.03905085" y2="1.03252011" id="Stroke-115" stroke="#4A4A4A" stroke-width="1.6" stroke-linecap="round" stroke-linejoin="round"></line>
                    </g>
                    <g id="Group-120" transform="translate(47.101695, 24.063218)">
                        <line x1="0.36311864" y1="0.380172414" x2="0.84040678" y2="1.03913793" id="Fill-117" fill="#FFFFFF" fill-rule="nonzero"></line>
                        <line x1="0.36311864" y1="0.380172414" x2="0.84040678" y2="1.03913793" id="Stroke-119" stroke="#4A4A4A" stroke-width="1.6" stroke-linecap="round" stroke-linejoin="round"></line>
                    </g>
                    <g id="Group-124" transform="translate(28.474576, 37.017241)">
                        <line x1="0.830779661" y1="0.974367816" x2="1.20501695" y2="1.49252874" id="Fill-121" fill="#FFFFFF" fill-rule="nonzero"></line>
                        <line x1="0.830779661" y1="0.974367816" x2="1.20501695" y2="1.49252874" id="Stroke-123" stroke="#4A4A4A" stroke-width="1.6" stroke-linecap="round" stroke-linejoin="round"></line>
                    </g>
                    <g id="Group-128" transform="translate(18.983051, 44.057471)">
                        <line x1="0.642847458" y1="0.638971264" x2="1.01708475" y2="1.15572414" id="Fill-125" fill="#FFFFFF" fill-rule="nonzero"></line>
                        <line x1="0.642847458" y1="0.638971264" x2="1.01708475" y2="1.15572414" id="Stroke-127" stroke="#4A4A4A" stroke-width="1.6" stroke-linecap="round" stroke-linejoin="round"></line>
                    </g>
                    <g id="Group-132" transform="translate(23.050847, 42.283933)">
                        <path d="M0.483932203,2.15666807 C1.29342373,2.33971405 2.31172881,1.23721405 2.02020339,0.0474151993" id="Fill-129" fill="#FFFFFF" fill-rule="nonzero"></path>
                        <path d="M0.483932203,2.15666807 C1.29342373,2.33971405 2.31172881,1.23721405 2.02020339,0.0474151993" id="Stroke-131" stroke="#4A4A4A" stroke-width="1.6" stroke-linecap="round" stroke-linejoin="round"></path>
                    </g>
                    <g id="Group-136" transform="translate(24.406780, 41.241379)">
                        <path d="M3.14942373,0.51787931 C2.97315254,1.35848276 1.58467797,1.85974713 0.664,1.08954598" id="Fill-133" fill="#FFFFFF" fill-rule="nonzero"></path>
                        <path d="M3.14942373,0.51787931 C2.97315254,1.35848276 1.58467797,1.85974713 0.664,1.08954598" id="Stroke-135" stroke="#4A4A4A" stroke-width="1.6" stroke-linecap="round" stroke-linejoin="round"></path>
                    </g>
                    <g id="Group-140" transform="translate(50.169492, 29.977011)">
                        <path d="M11.0824407,12.3584195 C8.11837288,13.0258333 4.88311864,12.8456034 1.50684746,11.9571264 C0.00311864407,11.5614655 2.25532203,18.2313793 2.25532203,18.2313793 C14.0749831,22.570977 27.3698983,11.0137356 26.2227797,3.90591954 C26.0329492,2.7287931 25.0797288,2.31060345 23.5271864,0.0408333333 C21.6776949,4.86057471 19.1285424,8.17511494 16.0926102,10.2111494" id="Fill-137" fill="#F7F7F7" fill-rule="nonzero"></path>
                        <path d="M11.0824407,12.3584195 C8.11837288,13.0258333 4.88311864,12.8456034 1.50684746,11.9571264 C0.00311864407,11.5614655 2.25532203,18.2313793 2.25532203,18.2313793 C14.0749831,22.570977 27.3698983,11.0137356 26.2227797,3.90591954 C26.0329492,2.7287931 25.0797288,2.31060345 23.5271864,0.0408333333 C21.6776949,4.86057471 19.1285424,8.17511494 16.0926102,10.2111494" id="Stroke-139" stroke="#4A4A4A" stroke-width="2" stroke-linecap="round" stroke-linejoin="round"></path>
                    </g>
                    <g id="Group-144" transform="translate(58.305085, 0.000000)">
                        <path d="M0.380610169,0.0225229885 C0.380610169,0.0225229885 1.85722034,0.129534483 2.12298305,2.85128736 L2.32908475,4.96194828" id="Fill-141" fill="#F7F7F7" fill-rule="nonzero"></path>
                        <path d="M0.380610169,0.0225229885 C0.380610169,0.0225229885 1.85722034,0.129534483 2.12298305,2.85128736 L2.32908475,4.96194828" id="Stroke-143" stroke="#4A4A4A" stroke-width="2" stroke-linecap="round" stroke-linejoin="round"></path>
                    </g>
                    <g id="Group-148" transform="translate(23.050847, 39.833333)">
                        <line x1="0.874576271" y1="1.84200575" x2="1.86033898" y2="1.12531034" id="Fill-145" fill="#FFFFFF" fill-rule="nonzero"></line>
                        <line x1="0.874576271" y1="1.84200575" x2="1.86033898" y2="1.12531034" id="Stroke-147" stroke="#4A4A4A" stroke-width="1.6" stroke-linecap="round" stroke-linejoin="round"></line>
                    </g>
                    <g id="Group-152" transform="translate(17.627119, 46.591954)">
                        <path d="M6.96040678,9.98895977 C5.03091525,9.9593908 2.91837288,9.45812644 0.64040678,8.28381609 C0.64040678,8.28381609 0.218711864,11.8588448 1.51498305,12.6656552 C7.92854237,16.6574655 20.115661,12.3643333 22.1685424,3.36832759 C21.996339,2.34608621 21.2641356,1.13375862 20.6458305,0.528298851 C20.3597288,0.249505747 20.2837966,-0.206701149 20.1549831,0.177695402 C19.576,1.93352874 16.9387119,6.09712069 13.3387119,8.23735057" id="Fill-149" fill="#ECECEC" fill-rule="nonzero"></path>
                        <path d="M6.96040678,9.98895977 C5.03091525,9.9593908 2.91837288,9.45812644 0.64040678,8.28381609 C0.64040678,8.28381609 0.218711864,11.8588448 1.51498305,12.6656552 C7.92854237,16.6574655 20.115661,12.3643333 22.1685424,3.36832759 C21.996339,2.34608621 21.2641356,1.13375862 20.6458305,0.528298851 C20.3597288,0.249505747 20.2837966,-0.206701149 20.1549831,0.177695402 C19.576,1.93352874 16.9387119,6.09712069 13.3387119,8.23735057" id="Stroke-151" stroke="#4A4A4A" stroke-width="2" stroke-linecap="round" stroke-linejoin="round"></path>
                    </g>
                    <g id="Group-156" transform="translate(27.118644, 55.321839)">
                        <path d="M1.15918644,0.718666667 C0.939525424,0.789068966 0.714440678,0.852431034 0.486644068,0.91016092" id="Fill-153" fill="#F7F7F7" fill-rule="nonzero"></path>
                        <path d="M1.15918644,0.718666667 C0.939525424,0.789068966 0.714440678,0.852431034 0.486644068,0.91016092" id="Stroke-155" stroke="#4A4A4A" stroke-width="2" stroke-linecap="round" stroke-linejoin="round"></path>
                    </g>
                    <g id="Group-160" stroke-linecap="round" stroke-linejoin="round" transform="translate(0.000000, 88.833333)" stroke="#4A4A4A" stroke-width="2">
                        <line x1="4.82708395" y1="0.719793103" x2="0.521355932" y2="0.719793103" id="Stroke-159"></line>
                    </g>
                </g>
            </g>
        </g>
    </g>
</svg>