<?xml version="1.0" encoding="UTF-8"?>
<svg width="130px" height="130px" viewBox="0 0 130 130" version="1.1" xmlns="http://www.w3.org/2000/svg" xmlns:xlink="http://www.w3.org/1999/xlink">
    <title>Product / Renters / Default</title>
    <g id="Product-/-Renters-/-Default" stroke="none" stroke-width="1" fill="none" fill-rule="evenodd">
        <g id="Default">
            <rect id="Rectangle" fill-opacity="0" fill="#FFFFFF" fill-rule="nonzero" x="0" y="0" width="130" height="130"></rect>
            <g id="Group-23-Copy" transform="translate(8.000000, 33.000000)">
                <g id="Group-17" transform="translate(10.560345, 0.000000)">
                    <g id="Group-3-Copy-3" transform="translate(47.486656, 56.163964) scale(-1, 1) translate(-47.486656, -56.163964) translate(0.486656, 22.163964)">
                        <polygon id="Fill-41" fill="#ECECEC" fill-rule="nonzero" points="55.6693479 42.8261046 55.6693479 66.4918925 39.2681802 66.4918925 39.347477 4.10443781 55.6693479 4.10443781 55.6693479 40.8819855"></polygon>
                        <polyline id="Fill-37" fill="#F7F7F7" fill-rule="nonzero" points="93.3920334 34.5693046 93.3920334 66.4918925 55.6693479 66.4918925 55.6693479 4.10443781 93.3920334 4.22264529 93.3920334 31.6039021"></polyline>
                        <polygon id="Path-Copy-8" fill="#ECECEC" fill-rule="nonzero" points="93.3726886 41.8179067 93.3726886 66.4445336 0.706091451 66.4445336 0.706091451 41.8179067 85.9217532 41.8179067"></polygon>
                        <line x1="71.9956063" y1="41.8652656" x2="90.206422" y2="41.8652656" id="Path-Copy-4" stroke="#4A4A4A" stroke-width="2" stroke-linecap="round" stroke-linejoin="round"></line>
                        <g id="Group" transform="translate(66.250457, 16.350651) scale(-1, 1) translate(-66.250457, -16.350651) translate(61.250457, 9.850651)">
                            <path d="M1.17440643,9.70574158 L8.7954292,9.70574158 L8.7954292,3.81065727 C8.7954292,1.70616994 7.08940514,0.000145882995 4.98491781,0.000145882995 C2.88043049,0.000145882995 1.17440643,1.70616994 1.17440643,3.81065727 L1.17440643,9.70574158 L1.17440643,9.70574158 Z" id="Fill-35" fill="#ECECEC" fill-rule="nonzero"></path>
                            <polygon id="Fill-36" fill="#FFFFFF" fill-rule="nonzero" opacity="0.428315662" transform="translate(5.557093, 4.853527) scale(-1, 1) translate(-5.557093, -4.853527) " points="3.06560507 -1.3415341e-14 5.02021197 9.70705452 8.0485815 9.70705452 6.0939746 -1.3415341e-14"></polygon>
                            <path d="M1.17440643,9.70574158 L8.7954292,9.70574158 L8.7954292,3.81065727 C8.7954292,1.70616994 7.08940514,0.000145882995 4.98491781,0.000145882995 C2.88043049,0.000145882995 1.17440643,1.70616994 1.17440643,3.81065727 L1.17440643,9.70574158 L1.17440643,9.70574158 Z" id="Stroke-37" stroke="#4A4A4A" stroke-width="2" stroke-linecap="round" stroke-linejoin="round"></path>
                            <line x1="0.471499243" y1="9.70574158" x2="9.49833638" y2="9.70574158" id="Path-2" stroke="#4A4A4A" stroke-width="2" stroke-linecap="round" stroke-linejoin="round"></line>
                            <path d="M0,9.89594731 L9.84070058,9.89594731 L9.84070058,10.7440716 C9.84070058,11.2428517 9.47315196,11.6653679 8.97917725,11.7344373 L1.13847667,12.8307537 C0.5915128,12.9072322 0.0861128577,12.5258285 0.00963430412,11.9788646 C0.00321918838,11.9329846 0,11.8867143 0,11.840388 L0,9.89594731 L0,9.89594731 Z" id="Rectangle-Copy-7" fill-opacity="0.08" fill="#4A4A4A" fill-rule="nonzero"></path>
                        </g>
                        <g id="Group-Copy-2" transform="translate(82.746248, 21.850651) scale(-1, 1) translate(-82.746248, -21.850651) translate(77.746248, 9.850651)">
                            <polygon id="Fill-35-Copy" fill="#ECECEC" fill-rule="nonzero" points="1.17440643 9.70574158 8.7954292 9.70574158 8.7954292 0.000145882996 1.17440643 0.000145882996"></polygon>
                            <polygon id="Fill-36" fill="#FFFFFF" fill-rule="nonzero" opacity="0.428315662" transform="translate(5.557093, 18.808616) scale(-1, 1) translate(-5.557093, -18.808616) " points="3.06560507 13.9550885 5.02021197 23.6621431 8.0485815 23.6621431 6.0939746 13.9550885"></polygon>
                            <polygon id="Fill-36-Copy" fill="#FFFFFF" fill-rule="nonzero" opacity="0.428315662" transform="translate(5.557093, 4.853527) scale(-1, 1) translate(-5.557093, -4.853527) " points="3.06560507 0 5.02021197 9.70705452 8.0485815 9.70705452 6.0939746 0"></polygon>
                            <polyline id="Path-Copy-3" stroke="#4A4A4A" stroke-width="2" stroke-linecap="round" stroke-linejoin="round" points="8.7954292 7.5208066 8.7954292 0.000145882996 1.17440643 0.000145882996 1.17440643 9.70574158 8.7954292 9.70574158"></polyline>
                            <line x1="0.471499243" y1="9.70574158" x2="9.49833638" y2="9.70574158" id="Path-2-Copy" stroke="#4A4A4A" stroke-width="2" stroke-linecap="round" stroke-linejoin="round"></line>
                            <path d="M0,9.89594731 L9.84070058,9.89594731 L9.84070058,10.7440716 C9.84070058,11.2428517 9.47315196,11.6653679 8.97917725,11.7344373 L1.13847667,12.8307537 C0.5915128,12.9072322 0.0861128577,12.5258285 0.00963430412,11.9788646 C0.00321918838,11.9329846 0,11.8867143 0,11.840388 L0,9.89594731 L0,9.89594731 Z" id="Rectangle-Copy-8" fill-opacity="0.08" fill="#4A4A4A" fill-rule="nonzero"></path>
                        </g>
                        <g id="Group-Copy-8" transform="translate(82.746248, 32.768402) scale(-1, 1) translate(-82.746248, -32.768402) translate(77.746248, 26.268402)">
                            <polygon id="Fill-35-Copy" fill="#ECECEC" fill-rule="nonzero" points="1.17440643 9.70574158 8.7954292 9.70574158 8.7954292 0.000145882996 1.17440643 0.000145882996"></polygon>
                            <polygon id="Fill-36-Copy" fill="#FFFFFF" fill-rule="nonzero" opacity="0.428315662" transform="translate(5.557093, 4.853527) scale(-1, 1) translate(-5.557093, -4.853527) " points="3.06560507 0 5.02021197 9.70705452 8.0485815 9.70705452 6.0939746 0"></polygon>
                            <polyline id="Path-Copy-3" stroke="#4A4A4A" stroke-width="2" stroke-linecap="round" stroke-linejoin="round" points="8.7954292 7.5208066 8.7954292 0.000145882996 1.17440643 0.000145882996 1.17440643 9.70574158 8.7954292 9.70574158"></polyline>
                            <line x1="0.471499243" y1="9.70574158" x2="9.49833638" y2="9.70574158" id="Path-2-Copy" stroke="#4A4A4A" stroke-width="2" stroke-linecap="round" stroke-linejoin="round"></line>
                            <path d="M0,9.89594731 L9.84070058,9.89594731 L9.84070058,10.7440716 C9.84070058,11.2428517 9.47315196,11.6653679 8.97917725,11.7344373 L1.13847667,12.8307537 C0.5915128,12.9072322 0.0861128577,12.5258285 0.00963430412,11.9788646 C0.00321918838,11.9329846 0,11.8867143 0,11.840388 L0,9.89594731 L0,9.89594731 Z" id="Rectangle-Copy-8" fill-opacity="0.08" fill="#4A4A4A" fill-rule="nonzero"></path>
                        </g>
                        <g id="Group-Copy-9" transform="translate(82.926189, 55.074141) scale(-1, 1) translate(-82.926189, -55.074141) translate(78.926189, 50.074141)">
                            <polygon id="Fill-35-Copy" fill="#ECECEC" fill-rule="nonzero" points="0.354348046 9.70574158 7.97537082 9.70574158 7.97537082 0.000145882996 0.354348046 0.000145882996"></polygon>
                            <polygon id="Fill-36-Copy" fill="#FFFFFF" fill-rule="nonzero" opacity="0.428315662" transform="translate(4.737034, 4.853527) scale(-1, 1) translate(-4.737034, -4.853527) " points="2.24554545 0 4.20015235 9.70705452 7.22852188 9.70705452 5.27391498 0"></polygon>
                            <polygon id="Path-Copy-3" stroke="#4A4A4A" stroke-width="2" stroke-linecap="round" stroke-linejoin="round" points="7.97537082 0.000145882996 0.354348046 0.000145882996 0.354348046 8.2090215 7.97537082 8.2090215"></polygon>
                        </g>
                        <g id="Group-Copy" transform="translate(66.250457, 33.589290) scale(-1, 1) translate(-66.250457, -33.589290) translate(61.250457, 27.089290)">
                            <path d="M1.17440643,9.70574158 L8.7954292,9.70574158 L8.7954292,3.81065727 C8.7954292,1.70616994 7.08940514,0.000145882995 4.98491781,0.000145882995 C2.88043049,0.000145882995 1.17440643,1.70616994 1.17440643,3.81065727 L1.17440643,9.70574158 L1.17440643,9.70574158 Z" id="Fill-35" fill="#ECECEC" fill-rule="nonzero"></path>
                            <polygon id="Fill-36" fill="#FFFFFF" fill-rule="nonzero" opacity="0.428315662" transform="translate(5.557093, 4.853527) scale(-1, 1) translate(-5.557093, -4.853527) " points="3.06560507 -1.3415341e-14 5.02021197 9.70705452 8.0485815 9.70705452 6.0939746 -1.3415341e-14"></polygon>
                            <path d="M1.17440643,9.70574158 L8.7954292,9.70574158 L8.7954292,3.81065727 C8.7954292,1.70616994 7.08940514,0.000145882995 4.98491781,0.000145882995 C2.88043049,0.000145882995 1.17440643,1.70616994 1.17440643,3.81065727 L1.17440643,9.70574158 L1.17440643,9.70574158 Z" id="Stroke-37" stroke="#4A4A4A" stroke-width="2" stroke-linecap="round" stroke-linejoin="round"></path>
                            <line x1="0.471499243" y1="9.70574158" x2="9.49833638" y2="9.70574158" id="Path-2" stroke="#4A4A4A" stroke-width="2" stroke-linecap="round" stroke-linejoin="round"></line>
                            <path d="M0,9.89594731 L9.84070058,9.89594731 L9.84070058,10.7440716 C9.84070058,11.2428517 9.47315196,11.6653679 8.97917725,11.7344373 L1.13847667,12.8307537 C0.5915128,12.9072322 0.0861128577,12.5258285 0.00963430412,11.9788646 C0.00321918838,11.9329846 0,11.8867143 0,11.840388 L0,9.89594731 L0,9.89594731 Z" id="Rectangle-Copy-7" fill-opacity="0.08" fill="#4A4A4A" fill-rule="nonzero"></path>
                        </g>
                        <g id="Group-Copy-7" transform="translate(47.248997, 58.574141) scale(-1, 1) translate(-47.248997, -58.574141) translate(43.748997, 50.074141)" fill-rule="nonzero">
                            <polygon id="Fill-35" fill="#DADADA" points="0.283478436 9.70574158 6.38029665 9.70574158 6.38029665 0.000145882995 0.283478436 0.000145882995"></polygon>
                            <path d="M0.283478436,16.2728421 L6.38029665,16.2728421 L6.38029665,2.31356598 C6.38029665,1.76128123 5.9325814,1.31356598 5.38029665,1.31356598 L1.28347844,1.31356598 C0.731193687,1.31356598 0.283478436,1.76128123 0.283478436,2.31356598 L0.283478436,16.2728421 L0.283478436,16.2728421 Z" id="Stroke-37" stroke="#4A4A4A" stroke-width="2" fill="#ECECEC" stroke-linecap="round" stroke-linejoin="round"></path>
                        </g>
                        <g id="Group-Copy-5" transform="translate(66.430399, 55.074141) scale(-1, 1) translate(-66.430399, -55.074141) translate(62.430399, 50.074141)">
                            <polygon id="Fill-35" fill="#F7F7F7" fill-rule="nonzero" points="0.458402042 9.70574158 7.86772973 9.70574158 7.86772973 0.000145882995 0.458402042 0.000145882995"></polygon>
                            <polygon id="Fill-36" fill="#FFFFFF" fill-rule="nonzero" opacity="0.428315662" transform="translate(4.719347, 4.853527) scale(-1, 1) translate(-4.719347, -4.853527) " points="2.29706675 0 4.19737901 9.70705452 7.14162716 9.70705452 5.2413149 0"></polygon>
                            <path d="M0.458402042,9.70574158 L6.86772973,9.70574158 C7.42001448,9.70574158 7.86772973,9.25802633 7.86772973,8.70574158 L7.86772973,1.00014588 C7.86772973,0.447861133 7.42001448,0.000145882995 6.86772973,0.000145882995 L1.45840204,0.000145882995 C0.906117292,0.000145882995 0.458402042,0.447861133 0.458402042,1.00014588 L0.458402042,7.80407638 L0.458402042,7.80407638" id="Path" stroke="#4A4A4A" stroke-width="2" stroke-linecap="round" stroke-linejoin="round"></path>
                        </g>
                        <g id="Group-Copy-4" transform="translate(47.069056, 16.350651) scale(-1, 1) translate(-47.069056, -16.350651) translate(42.569056, 9.850651)">
                            <path d="M0.978672023,9.70574158 L7.32952433,9.70574158 L7.32952433,3.17557204 C7.32952433,1.4218326 5.90783762,0.000145882995 4.15409818,0.000145882995 C2.40035874,0.000145882995 0.978672023,1.4218326 0.978672023,3.17557204 L0.978672023,9.70574158 L0.978672023,9.70574158 Z" id="Fill-35" fill="#ECECEC" fill-rule="nonzero"></path>
                            <polygon id="Fill-36" fill="#FFFFFF" fill-rule="nonzero" opacity="0.428315662" transform="translate(4.630911, 4.853527) scale(-1, 1) translate(-4.630911, -4.853527) " points="2.55467122 -1.3415341e-14 4.1835103 9.70705452 6.70715158 9.70705452 5.07831249 -1.3415341e-14"></polygon>
                            <path d="M0.978672023,5.49372622 L0.978672023,9.70574158 L7.32952433,9.70574158 L7.32952433,3.17557204 C7.32952433,1.4218326 5.90783762,0.000145882995 4.15409818,0.000145882995 C2.40035874,0.000145882995 0.978672023,1.4218326 0.978672023,3.17557204 L0.978672023,3.2874746 L0.978672023,3.2874746" id="Path" stroke="#4A4A4A" stroke-width="2" stroke-linecap="round" stroke-linejoin="round"></path>
                            <line x1="0.392916036" y1="9.70574158" x2="7.91528032" y2="9.70574158" id="Path-2" stroke="#4A4A4A" stroke-width="2" stroke-linecap="round" stroke-linejoin="round"></line>
                            <path d="M0,9.89594731 L8.20058382,9.89594731 L8.20058382,10.7677856 C8.20058382,11.2562121 7.84775223,11.6731769 7.3660592,11.7539995 L1.16547538,12.7943864 C0.620804477,12.8857759 0.105175611,12.5183187 0.0137860795,11.9736478 C0.00461125266,11.9189669 0,11.8636177 0,11.8081724 L0,9.89594731 L0,9.89594731 Z" id="Rectangle-Copy-7" fill-opacity="0.08" fill="#4A4A4A" fill-rule="nonzero"></path>
                        </g>
                        <g id="Group-Copy-3" transform="translate(47.069056, 33.589290) scale(-1, 1) translate(-47.069056, -33.589290) translate(42.569056, 27.089290)">
                            <path d="M0.978672023,9.70574158 L7.32952433,9.70574158 L7.32952433,3.17557204 C7.32952433,1.4218326 5.90783762,0.000145882995 4.15409818,0.000145882995 C2.40035874,0.000145882995 0.978672023,1.4218326 0.978672023,3.17557204 L0.978672023,9.70574158 L0.978672023,9.70574158 Z" id="Fill-35" fill="#ECECEC" fill-rule="nonzero"></path>
                            <polygon id="Fill-36" fill="#FFFFFF" fill-rule="nonzero" opacity="0.428315662" transform="translate(4.630911, 4.853527) scale(-1, 1) translate(-4.630911, -4.853527) " points="2.55467122 -1.3415341e-14 4.1835103 9.70705452 6.70715158 9.70705452 5.07831249 -1.3415341e-14"></polygon>
                            <path d="M0.978672023,9.70574158 L7.32952433,9.70574158 L7.32952433,3.17557204 C7.32952433,1.4218326 5.90783762,0.000145882995 4.15409818,0.000145882995 C2.40035874,0.000145882995 0.978672023,1.4218326 0.978672023,3.17557204 L0.978672023,9.70574158 L0.978672023,9.70574158 Z" id="Stroke-37" stroke="#4A4A4A" stroke-width="2" stroke-linecap="round" stroke-linejoin="round"></path>
                            <line x1="0.392916036" y1="9.70574158" x2="7.91528032" y2="9.70574158" id="Path-2" stroke="#4A4A4A" stroke-width="2" stroke-linecap="round" stroke-linejoin="round"></line>
                            <path d="M0,9.89594731 L8.20058382,9.89594731 L8.20058382,10.7677856 C8.20058382,11.2562121 7.84775223,11.6731769 7.3660592,11.7539995 L1.16547538,12.7943864 C0.620804477,12.8857759 0.105175611,12.5183187 0.0137860795,11.9736478 C0.00461125266,11.9189669 0,11.8636177 0,11.8081724 L0,9.89594731 L0,9.89594731 Z" id="Rectangle-Copy-7" fill-opacity="0.08" fill="#4A4A4A" fill-rule="nonzero"></path>
                        </g>
                        <line x1="39.2681802" y1="3.6699772" x2="54.8492895" y2="3.71801085" id="Path" stroke="#4A4A4A" stroke-width="2" stroke-linecap="round" stroke-linejoin="round"></line>
                        <polygon id="Fill-165" fill-opacity="0.08" fill="#4A4A4A" fill-rule="nonzero" opacity="0.615559896" points="55.6693479 6.56710049 93.3920334 6.56710049 93.3920334 3.28355025 55.6693479 3.28355025"></polygon>
                        <path d="M92.9820042,34.5023621 L92.9820042,66.2529469 M92.9575924,4.10443781 L74.5306906,4.10443781 M92.9820042,4.10443781 L92.9820042,31.8122657" id="Shape" stroke="#4A4A4A" stroke-width="2" stroke-linecap="round" stroke-linejoin="round"></path>
                        <g id="Group-4" transform="translate(54.750456, 2.500000) scale(-1, 1) translate(-54.750456, -2.500000) translate(38.250456, 0.000000)">
                            <polygon id="Path-Copy-5" fill="#DADADA" fill-rule="nonzero" points="16.5921961 4.69191974 16.5921961 0.404117977 27.9670282 0.404117977 31.6769064 0.404117977 31.6769064 4.69191974"></polygon>
                            <path d="M15.0694091,0.00992237515 L31.5967949,0.00992237515 C31.9723753,0.00992237515 32.2768433,0.393600067 32.2768433,0.866890486 L32.2768433,3.08498765 C32.2768433,3.55827807 31.9723753,3.94195576 31.5967949,3.94195576 L15.0694091,3.94195576" id="Path" stroke="#4A4A4A" stroke-width="2" stroke-linecap="round" stroke-linejoin="round"></path>
                            <path d="M1.03803548,3.94195576 C0.504076379,3.94195576 0.071217,3.50909638 0.071217,2.97513728 L0.071217,1 C0.071217,0.44771525 0.518932251,0 1.071217,0 L15.976946,0 L15.976946,0" id="Path-Copy" stroke="#4A4A4A" stroke-width="2" stroke-linecap="round" stroke-linejoin="round" transform="translate(8.024082, 1.970978) scale(-1, 1) translate(-8.024082, -1.970978) "></path>
                        </g>
                        <polygon id="Fill-165" fill-opacity="0.08" fill="#4A4A4A" fill-rule="nonzero" opacity="0.615559896" points="39.2681802 6.56710049 55.6693479 6.56710049 55.6693479 3.28355025 39.2681802 3.28355025"></polygon>
                        <line x1="42.5484137" y1="43.9174845" x2="53.2091727" y2="43.9174845" id="Path-Copy-6" stroke="#4A4A4A" stroke-width="2" stroke-linecap="round" stroke-linejoin="round"></line>
                        <path d="M55.6693479,66.4918925 L39.2681802,66.4918925 L39.2681802,52.8783162 M39.2681802,49.6286286 L39.2681802,4.54240197 M55.6693479,4.10443781 L55.6693479,40.0866109" id="Shape" stroke="#4A4A4A" stroke-width="2" stroke-linecap="round" stroke-linejoin="round"></path>
                        <line x1="56.079377" y1="40.2234905" x2="56.079377" y2="64.0292298" id="Path-4-Copy-6" stroke="#4A4A4A" stroke-width="2" stroke-linecap="round" stroke-linejoin="round"></line>
                    </g>
                    <g id="Group-3-Copy-2" transform="translate(57.712091, 44.500000) scale(-1, 1) translate(-57.712091, -44.500000) translate(20.212091, 0.000000)">
                        <polygon id="Fill-41" fill="#ECECEC" fill-rule="nonzero" points="23.3727101 56.71128 23.3727101 88.2850759 1.43152771 88.2850759 1.53760947 5.05062912 23.3727101 5.05062912 23.3727101 54.1175266"></polygon>
                        <polyline id="Fill-37" fill="#FCFCFC" fill-rule="nonzero" points="73.1744402 28.937533 73.1744402 58.2198717 23.3006973 58.2198717 23.3006973 5.19467121 73.1744402 5.28679647 73.1744402 26.6264399"></polyline>
                        <g id="Group" transform="translate(58.513282, 22.071056) scale(-1, 1) translate(-58.513282, -22.071056) translate(52.013282, 13.071056)">
                            <path d="M1.51505957,12.8321103 L11.3466675,12.8321103 L11.3466675,4.91599682 C11.3466675,2.20107327 9.14578708,0.000192874153 6.43086352,0.000192874153 C3.71593997,0.000192874153 1.51505957,2.20107327 1.51505957,4.91599682 L1.51505957,12.8321103 L1.51505957,12.8321103 Z" id="Fill-35" fill="#ECECEC" fill-rule="nonzero"></path>
                            <polygon id="Fill-36" fill="#FFFFFF" fill-rule="nonzero" opacity="0.428315662" transform="translate(7.169006, 6.416923) scale(-1, 1) translate(-7.169006, -6.416923) " points="3.9548267 -1.77366287e-14 6.4763949 12.8338461 10.3831857 12.8338461 7.86161752 -1.77366287e-14"></polygon>
                            <path d="M1.51505957,12.8321103 L11.3466675,12.8321103 L11.3466675,4.91599682 C11.3466675,2.20107327 9.14578708,0.000192874153 6.43086352,0.000192874153 C3.71593997,0.000192874153 1.51505957,2.20107327 1.51505957,4.91599682 L1.51505957,12.8321103 L1.51505957,12.8321103 Z" id="Stroke-37" stroke="#4A4A4A" stroke-width="2" stroke-linecap="round" stroke-linejoin="round"></path>
                            <line x1="0.608264248" y1="12.8321103" x2="12.2534628" y2="12.8321103" id="Path-2" stroke="#4A4A4A" stroke-width="2" stroke-linecap="round" stroke-linejoin="round"></line>
                            <path d="M0,13.0835842 L12.6951346,13.0835842 L12.6951346,14.4880989 C12.6951346,14.9855853 12.3294393,15.4074194 11.8369833,15.4779872 L1.14184868,17.010575 C0.595148442,17.0889158 0.0884525116,16.7092355 0.0101116472,16.1625353 C0.00337909111,16.1155523 0,16.0681495 0,16.0206866 L0,13.0835842 L0,13.0835842 Z" id="Rectangle-Copy-7" fill-opacity="0.08" fill="#4A4A4A" fill-rule="nonzero"></path>
                        </g>
                        <g id="Group" transform="translate(37.656991, 22.071056) scale(-1, 1) translate(-37.656991, -22.071056) translate(31.156991, 13.071056)">
                            <path d="M1.51505957,12.8321103 L11.3466675,12.8321103 L11.3466675,4.91599682 C11.3466675,2.20107327 9.14578708,0.000192874153 6.43086352,0.000192874153 C3.71593997,0.000192874153 1.51505957,2.20107327 1.51505957,4.91599682 L1.51505957,12.8321103 L1.51505957,12.8321103 Z" id="Fill-35" fill="#ECECEC" fill-rule="nonzero"></path>
                            <polygon id="Fill-36" fill="#FFFFFF" fill-rule="nonzero" opacity="0.428315662" transform="translate(7.169006, 6.416923) scale(-1, 1) translate(-7.169006, -6.416923) " points="3.9548267 -1.77366287e-14 6.4763949 12.8338461 10.3831857 12.8338461 7.86161752 -1.77366287e-14"></polygon>
                            <path d="M1.51505957,12.8321103 L11.3466675,12.8321103 L11.3466675,4.91599682 C11.3466675,2.20107327 9.14578708,0.000192874153 6.43086352,0.000192874153 C3.71593997,0.000192874153 1.51505957,2.20107327 1.51505957,4.91599682 L1.51505957,12.8321103 L1.51505957,12.8321103 Z" id="Stroke-37" stroke="#4A4A4A" stroke-width="2" stroke-linecap="round" stroke-linejoin="round"></path>
                            <line x1="0.608264248" y1="12.8321103" x2="12.2534628" y2="12.8321103" id="Path-2" stroke="#4A4A4A" stroke-width="2" stroke-linecap="round" stroke-linejoin="round"></line>
                            <path d="M0,13.0835842 L12.6951346,13.0835842 L12.6951346,14.4880989 C12.6951346,14.9855853 12.3294393,15.4074194 11.8369833,15.4779872 L1.14184868,17.010575 C0.595148442,17.0889158 0.0884525116,16.7092355 0.0101116472,16.1625353 C0.00337909111,16.1155523 0,16.0681495 0,16.0206866 L0,13.0835842 L0,13.0835842 Z" id="Rectangle-Copy-7" fill-opacity="0.08" fill="#4A4A4A" fill-rule="nonzero"></path>
                        </g>
                        <g id="Group-Copy-2" transform="translate(58.513282, 45.513710) scale(-1, 1) translate(-58.513282, -45.513710) translate(52.013282, 36.513710)">
                            <path d="M1.51505957,12.8321103 L11.3466675,12.8321103 L11.3466675,4.91599682 C11.3466675,2.20107327 9.14578708,0.000192874153 6.43086352,0.000192874153 C3.71593997,0.000192874153 1.51505957,2.20107327 1.51505957,4.91599682 L1.51505957,12.8321103 L1.51505957,12.8321103 Z" id="Fill-35" fill="#ECECEC" fill-rule="nonzero"></path>
                            <polygon id="Fill-36" fill="#FFFFFF" fill-rule="nonzero" opacity="0.428315662" transform="translate(7.169006, 6.416923) scale(-1, 1) translate(-7.169006, -6.416923) " points="3.9548267 -1.77366287e-14 6.4763949 12.8338461 10.3831857 12.8338461 7.86161752 -1.77366287e-14"></polygon>
                            <path d="M11.3466675,9.94337411 L11.3466675,4.91599682 C11.3466675,2.20107327 9.14578708,0.000192874153 6.43086352,0.000192874153 C3.71593997,0.000192874153 1.51505957,2.20107327 1.51505957,4.91599682 L1.51505957,12.8321103 L1.51505957,12.8321103 L11.3466675,12.8321103" id="Path" stroke="#4A4A4A" stroke-width="2" stroke-linecap="round" stroke-linejoin="round"></path>
                            <line x1="0.608264248" y1="12.8321103" x2="12.2534628" y2="12.8321103" id="Path-2" stroke="#4A4A4A" stroke-width="2" stroke-linecap="round" stroke-linejoin="round"></line>
                            <path d="M0,13.0835842 L12.6951346,13.0835842 L12.6951346,14.4880989 C12.6951346,14.9855853 12.3294393,15.4074194 11.8369833,15.4779872 L1.14184868,17.010575 C0.595148442,17.0889158 0.0884525116,16.7092355 0.0101116472,16.1625353 C0.00337909111,16.1155523 0,16.0681495 0,16.0206866 L0,13.0835842 L0,13.0835842 Z" id="Rectangle-Copy-7" fill-opacity="0.08" fill="#4A4A4A" fill-rule="nonzero"></path>
                        </g>
                        <g id="Group-Copy" transform="translate(37.656991, 45.513710) scale(-1, 1) translate(-37.656991, -45.513710) translate(31.156991, 36.513710)">
                            <path d="M1.51505957,12.8321103 L11.3466675,12.8321103 L11.3466675,4.91599682 C11.3466675,2.20107327 9.14578708,0.000192874153 6.43086352,0.000192874153 C3.71593997,0.000192874153 1.51505957,2.20107327 1.51505957,4.91599682 L1.51505957,12.8321103 L1.51505957,12.8321103 Z" id="Fill-35" fill="#ECECEC" fill-rule="nonzero"></path>
                            <polygon id="Fill-36" fill="#FFFFFF" fill-rule="nonzero" opacity="0.428315662" transform="translate(7.169006, 6.416923) scale(-1, 1) translate(-7.169006, -6.416923) " points="3.9548267 -1.77366287e-14 6.4763949 12.8338461 10.3831857 12.8338461 7.86161752 -1.77366287e-14"></polygon>
                            <path d="M1.51505957,12.8321103 L11.3466675,12.8321103 L11.3466675,4.91599682 C11.3466675,2.20107327 9.14578708,0.000192874153 6.43086352,0.000192874153 C3.71593997,0.000192874153 1.51505957,2.20107327 1.51505957,4.91599682 L1.51505957,12.8321103 L1.51505957,12.8321103 Z" id="Stroke-37" stroke="#4A4A4A" stroke-width="2" stroke-linecap="round" stroke-linejoin="round"></path>
                            <line x1="0.608264248" y1="12.8321103" x2="12.2534628" y2="12.8321103" id="Path-2" stroke="#4A4A4A" stroke-width="2" stroke-linecap="round" stroke-linejoin="round"></line>
                            <path d="M0,13.0835842 L12.6951346,13.0835842 L12.6951346,14.4880989 C12.6951346,14.9855853 12.3294393,15.4074194 11.8369833,15.4779872 L1.14184868,17.010575 C0.595148442,17.0889158 0.0884525116,16.7092355 0.0101116472,16.1625353 C0.00337909111,16.1155523 0,16.0681495 0,16.0206866 L0,13.0835842 L0,13.0835842 Z" id="Rectangle-Copy-7" fill-opacity="0.08" fill="#4A4A4A" fill-rule="nonzero"></path>
                        </g>
                        <polygon id="Path-Copy-8" fill="#ECECEC" fill-rule="nonzero" points="72.7210426 58.2198717 72.7210426 88.6084977 1.43152771 88.6084977 1.43152771 58.2198717 66.9889494 58.2198717"></polygon>
                        <g id="Group-Copy-6" transform="translate(58.606486, 73.402336) scale(-1, 1) translate(-58.606486, -73.402336) translate(53.106486, 66.902336)">
                            <polygon id="Fill-35" fill="#ECECEC" fill-rule="nonzero" points="0.608264248 12.8321103 10.4398721 12.8321103 10.4398721 0.000192874153 0.608264248 0.000192874153"></polygon>
                            <polygon id="Fill-36" fill="#FFFFFF" fill-rule="nonzero" opacity="0.428315662" transform="translate(6.262211, 6.416923) scale(-1, 1) translate(-6.262211, -6.416923) " points="3.04803199 0 5.56960018 12.8338461 9.476391 12.8338461 6.9548228 0"></polygon>
                            <polygon id="Stroke-37" stroke="#4A4A4A" stroke-width="2" stroke-linecap="round" stroke-linejoin="round" points="0.608264248 12.8321103 10.4398721 12.8321103 10.4398721 0.000192874153 0.608264248 0.000192874153"></polygon>
                        </g>
                        <g id="Group-Copy-7" stroke-linecap="round" stroke-linejoin="round" transform="translate(12.453130, 78.544111) scale(-1, 1) translate(-12.453130, -78.544111) translate(7.953130, 68.544111)" fill="#F7F7F7" fill-rule="nonzero" stroke="#4A4A4A" stroke-width="2">
                            <polygon id="Stroke-37" points="0.391827166 19.8727997 8.81891965 19.8727997 8.81891965 0.0949106697 0.391827166 0.0949106697"></polygon>
                        </g>
                        <g id="Group-Copy-5" transform="translate(37.750194, 73.402336) scale(-1, 1) translate(-37.750194, -73.402336) translate(32.250194, 66.902336)">
                            <polygon id="Fill-35" fill="#ECECEC" fill-rule="nonzero" points="0.608264248 12.8321103 10.4398721 12.8321103 10.4398721 0.000192874153 0.608264248 0.000192874153"></polygon>
                            <polygon id="Fill-36" fill="#FFFFFF" fill-rule="nonzero" opacity="0.428315662" transform="translate(6.262211, 6.416923) scale(-1, 1) translate(-6.262211, -6.416923) " points="3.04803199 0 5.56960018 12.8338461 9.476391 12.8338461 6.9548228 0"></polygon>
                            <polyline id="Path" stroke="#4A4A4A" stroke-width="2" stroke-linecap="round" stroke-linejoin="round" points="0.608264248 12.8321103 10.4398721 12.8321103 10.4398721 0.000192874153 0.608264248 0.000192874153 0.608264248 10.3178895"></polyline>
                        </g>
                        <g id="Group-Copy-4" transform="translate(12.359925, 21.571056) scale(-1, 1) translate(-12.359925, -21.571056) translate(6.859925, 13.071056)">
                            <path d="M1.29862249,12.8321103 L9.72571498,12.8321103 L9.72571498,4.21373912 C9.72571498,1.88666178 7.83924607,0.000192874153 5.51216874,0.000192874153 C3.1850914,0.000192874153 1.29862249,1.88666178 1.29862249,4.21373912 L1.29862249,12.8321103 L1.29862249,12.8321103 Z" id="Fill-35" fill="#ECECEC" fill-rule="nonzero"></path>
                            <polygon id="Fill-36" fill="#FFFFFF" fill-rule="nonzero" opacity="0.428315662" transform="translate(6.144862, 6.416923) scale(-1, 1) translate(-6.144862, -6.416923) " points="3.38985086 -1.77366287e-14 5.55119503 12.8338461 8.89987287 12.8338461 6.73852871 -1.77366287e-14"></polygon>
                            <path d="M1.29862249,7.26333995 L1.29862249,12.8321103 L9.72571498,12.8321103 L9.72571498,4.21373912 C9.72571498,1.88666178 7.83924607,0.000192874153 5.51216874,0.000192874153 C3.1850914,0.000192874153 1.29862249,1.88666178 1.29862249,4.21373912 L1.29862249,4.34642075 L1.29862249,4.34642075" id="Path" stroke="#4A4A4A" stroke-width="2" stroke-linecap="round" stroke-linejoin="round"></path>
                            <line x1="0.521369355" y1="12.8321103" x2="10.5029681" y2="12.8321103" id="Path-2" stroke="#4A4A4A" stroke-width="2" stroke-linecap="round" stroke-linejoin="round"></line>
                            <path d="M0,13.0835842 L10.8815439,13.0835842 L10.8815439,14.5083184 C10.8815439,14.9969685 10.5283973,15.4140554 10.0464361,15.49463 L1.16489217,16.9794518 C0.620167311,17.0705193 0.104755828,16.7027572 0.0136883995,16.1580324 C0.00457846784,16.1035408 0,16.048388 0,15.9931402 L0,13.0835842 L0,13.0835842 Z" id="Rectangle-Copy-7" fill-opacity="0.08" fill="#4A4A4A" fill-rule="nonzero"></path>
                        </g>
                        <g id="Group-Copy-3" transform="translate(12.359925, 45.013710) scale(-1, 1) translate(-12.359925, -45.013710) translate(6.859925, 36.513710)">
                            <path d="M1.29862249,12.8321103 L9.72571498,12.8321103 L9.72571498,4.21373912 C9.72571498,1.88666178 7.83924607,0.000192874153 5.51216874,0.000192874153 C3.1850914,0.000192874153 1.29862249,1.88666178 1.29862249,4.21373912 L1.29862249,12.8321103 L1.29862249,12.8321103 Z" id="Fill-35" fill="#ECECEC" fill-rule="nonzero"></path>
                            <polygon id="Fill-36" fill="#FFFFFF" fill-rule="nonzero" opacity="0.428315662" transform="translate(6.144862, 6.416923) scale(-1, 1) translate(-6.144862, -6.416923) " points="3.38985086 -1.77366287e-14 5.55119503 12.8338461 8.89987287 12.8338461 6.73852871 -1.77366287e-14"></polygon>
                            <path d="M1.29862249,12.8321103 L9.72571498,12.8321103 L9.72571498,4.21373912 C9.72571498,1.88666178 7.83924607,0.000192874153 5.51216874,0.000192874153 C3.1850914,0.000192874153 1.29862249,1.88666178 1.29862249,4.21373912 L1.29862249,12.8321103 L1.29862249,12.8321103 Z" id="Stroke-37" stroke="#4A4A4A" stroke-width="2" stroke-linecap="round" stroke-linejoin="round"></path>
                            <line x1="0.521369355" y1="12.8321103" x2="10.5029681" y2="12.8321103" id="Path-2" stroke="#4A4A4A" stroke-width="2" stroke-linecap="round" stroke-linejoin="round"></line>
                            <path d="M0,13.0835842 L10.8815439,13.0835842 L10.8815439,14.5083184 C10.8815439,14.9969685 10.5283973,15.4140554 10.0464361,15.49463 L1.16489217,16.9794518 C0.620167311,17.0705193 0.104755828,16.7027572 0.0136883995,16.1580324 C0.00457846784,16.1035408 0,16.048388 0,15.9931402 L0,13.0835842 L0,13.0835842 Z" id="Rectangle-Copy-7" fill-opacity="0.08" fill="#4A4A4A" fill-rule="nonzero"></path>
                        </g>
                        <line x1="1.53760947" y1="4.78646183" x2="22.5855061" y2="4.83726666" id="Path" stroke="#4A4A4A" stroke-width="2" stroke-linecap="round" stroke-linejoin="round"></line>
                        <polygon id="Fill-165" fill-opacity="0.08" fill="#4A4A4A" fill-rule="nonzero" opacity="0.615559896" points="23.3006973 8.76993648 73.1744402 8.76993648 73.1744402 4.42870418 23.3006973 4.42870418"></polygon>
                        <path d="M72.7934471,18.8734228 L72.7934471,19.4241392 M72.7934471,22.2870002 L72.7934471,85.1355119 M72.7934471,4.98551063 L72.7934471,15.6757952" id="Shape" stroke="#4A4A4A" stroke-width="2" stroke-linecap="round" stroke-linejoin="round"></path>
                        <g id="Group-4" transform="translate(37.005851, 3.035115) scale(-1, 1) translate(-37.005851, -3.035115) translate(0.005851, 0.035115)">
                            <polygon id="Path-Copy-5" fill="#DADADA" fill-rule="nonzero" points="50.7149625 5.78970865 50.7149625 0.498671221 67.4111209 0.498671221 72.8565388 0.498671221 72.8565388 5.78970865"></polygon>
                            <path d="M50.7116436,0.0122439565 L72.7497159,0.0122439565 C73.2505252,0.0122439565 73.6565113,0.485692391 73.6565113,1.06972063 L73.6565113,3.80679566 C73.6565113,4.3908239 73.2505252,4.86427233 72.7497159,4.86427233 L50.7116436,4.86427233" id="Path" stroke="#4A4A4A" stroke-width="2" stroke-linecap="round" stroke-linejoin="round"></path>
                            <polygon id="Path-Copy-2" fill="#ECECEC" fill-rule="nonzero" points="0.50133775 4.9214622 0.50133775 0.498671221 38.8103763 0.498671221 51.0560266 0.498671221 51.0560266 4.9214622"></polygon>
                            <path d="M43.2176266,4.86427233 L1,4.86427233 C0.44771525,4.86427233 0,4.41655708 0,3.86427233 L0,1 C0,0.44771525 0.44771525,0 1,0 C9.46598225,0 17.9319645,0 26.3979468,0 C32.2641571,0 39.4261333,0 47.8838751,0" id="Path" stroke="#4A4A4A" stroke-width="2" stroke-linecap="round" stroke-linejoin="round"></path>
                            <polyline id="Path-Copy" stroke="#4A4A4A" stroke-width="2" stroke-linecap="round" stroke-linejoin="round" transform="translate(40.553342, 2.432136) scale(-1, 1) translate(-40.553342, -2.432136) " points="35.1465213 4.86427233 30.7126414 4.86427233 30.7126414 -1.84096391e-13 50.3940425 -1.84096391e-13"></polyline>
                        </g>
                        <polygon id="Fill-165" fill-opacity="0.08" fill="#4A4A4A" fill-rule="nonzero" opacity="0.615559896" points="0.864780633 8.76993648 22.5507909 8.76993648 22.5507909 4.73866817 0.864780633 4.73866817"></polygon>
                        <line x1="24.2074926" y1="58.2198717" x2="68.7666238" y2="58.2198717" id="Path" stroke="#4A4A4A" stroke-width="2" stroke-linecap="round" stroke-linejoin="round"></line>
                        <line x1="5.16479077" y1="58.2198717" x2="19.7996762" y2="58.2198717" id="Path-Copy-6" stroke="#4A4A4A" stroke-width="2" stroke-linecap="round" stroke-linejoin="round"></line>
                        <path d="M23.3732542,88.6084977 L1.43152771,88.6084977 L1.43152771,70.3753221 M1.43152771,66.022893 L1.43152771,5.63721103 M23.3732542,5.05062912 L23.3732542,53.2429093" id="Shape" stroke="#4A4A4A" stroke-width="2" stroke-linecap="round" stroke-linejoin="round"></path>
                        <line x1="23.3727101" y1="53.8781661" x2="23.3727101" y2="86.0037583" id="Path-4-Copy-6" stroke="#4A4A4A" stroke-width="2" stroke-linecap="round" stroke-linejoin="round"></line>
                    </g>
                </g>
                <line x1="6.70188146" y1="88.6558566" x2="115" y2="88.6482558" id="Path-6" stroke="#4A4A4A" stroke-width="2" stroke-linecap="round"></line>
                <line x1="3.2818511" y1="88.6558566" x2="0.638674135" y2="88.6558566" id="Path-6-Copy" stroke="#4A4A4A" stroke-width="2" stroke-linecap="round"></line>
            </g>
        </g>
    </g>
</svg>